<?xml version="1.0" encoding="UTF-8" standalone="no"?>
<svg
   xmlns:dc="http://purl.org/dc/elements/1.1/"
   xmlns:cc="http://creativecommons.org/ns#"
   xmlns:rdf="http://www.w3.org/1999/02/22-rdf-syntax-ns#"
   xmlns:svg="http://www.w3.org/2000/svg"
   xmlns="http://www.w3.org/2000/svg"
   xmlns:sodipodi="http://sodipodi.sourceforge.net/DTD/sodipodi-0.dtd"
   xmlns:inkscape="http://www.inkscape.org/namespaces/inkscape"
   version="1.0"
   width="1600.0157"
   height="1600.0157"
   viewBox="0 0 1280.0126 1280.0126"
   preserveAspectRatio="xMidYMid meet"
   id="svg2"
   inkscape:version="0.48.4 r9939"
   sodipodi:docname="link.svg">
  <defs
     id="defs46" />
  <sodipodi:namedview
     pagecolor="#ffffff"
     bordercolor="#666666"
     borderopacity="1"
     objecttolerance="10"
     gridtolerance="10"
     guidetolerance="10"
     inkscape:pageopacity="0"
     inkscape:pageshadow="2"
     inkscape:window-width="2560"
     inkscape:window-height="1381"
     id="namedview44"
     showgrid="false"
     fit-margin-top="0"
     fit-margin-left="0"
     fit-margin-right="0"
     fit-margin-bottom="0"
     inkscape:zoom="0.85441127"
     inkscape:cx="1293.2269"
     inkscape:cy="911.75896"
     inkscape:window-x="1272"
     inkscape:window-y="-8"
     inkscape:window-maximized="1"
     inkscape:current-layer="svg2" />
  <metadata
     id="metadata4">
Created by potrace 1.12, written by Peter Selinger 2001-2015
<rdf:RDF>
  <cc:Work
     rdf:about="">
    <dc:format>image/svg+xml</dc:format>
    <dc:type
       rdf:resource="http://purl.org/dc/dcmitype/StillImage" />
  </cc:Work>
</rdf:RDF>
</metadata>
  <g
     id="g3027"
     transform="scale(0.8,0.8)"
     style="fill:#ffffff">
    <path
       id="path3029"
       d="m 0,0 1600.0157,0 0,1600.0157 -1600.0157,0 z"
       style="fill:#ffffff;fill-opacity:1;fill-rule:nonzero;stroke:none"
       inkscape:connector-curvature="0" />
  </g>
  <g
     transform="matrix(0.1,0,0,-0.1,327.5063,952.5063)"
     id="g6"
     style="fill:#ffffff;stroke:none">
    <path
       d="m 0,5375 0,-875 125,0 125,0 0,750 0,750 750,0 750,0 0,125 0,125 -875,0 -875,0 0,-875 z"
       id="path8"
       inkscape:connector-curvature="0"
       style="fill:#ffffff" />
    <path
       d="m 4250,375 0,375 -125,0 -125,0 0,250 0,250 125,0 125,0 0,125 0,125 -125,0 -125,0 0,375 0,375 125,0 125,0 0,125 0,125 -250,0 -250,0 0,-125 0,-125 -125,0 -125,0 0,-125 0,-125 -125,0 -125,0 0,-125 0,-125 -125,0 -125,0 0,125 0,125 -250,0 -250,0 0,250 0,250 125,0 125,0 0,-125 0,-125 250,0 250,0 0,125 0,125 125,0 125,0 0,125 0,125 125,0 125,0 0,125 0,125 250,0 250,0 0,-125 0,-125 125,0 125,0 0,-375 0,-375 250,0 250,0 0,125 0,125 125,0 125,0 0,-125 0,-125 125,0 125,0 0,250 0,250 125,0 125,0 0,-125 0,-125 125,0 125,0 0,125 0,125 125,0 125,0 0,125 0,125 -125,0 -125,0 0,125 0,125 125,0 125,0 0,250 0,250 -125,0 -125,0 0,-125 0,-125 -125,0 -125,0 0,-250 0,-250 -125,0 -125,0 0,250 0,250 -125,0 -125,0 0,125 0,125 125,0 125,0 0,125 0,125 250,0 250,0 0,125 0,125 -250,0 -250,0 0,-125 0,-125 -250,0 -250,0 0,125 0,125 -375,0 -375,0 0,125 0,125 -125,0 -125,0 0,125 0,125 125,0 125,0 0,250 0,250 -125,0 -125,0 0,250 0,250 125,0 125,0 0,125 0,125 -125,0 -125,0 0,125 0,125 125,0 125,0 0,125 0,125 -125,0 -125,0 0,-125 0,-125 -125,0 -125,0 0,125 0,125 -125,0 -125,0 0,-125 0,-125 -125,0 -125,0 0,125 0,125 -125,0 -125,0 0,-250 0,-250 125,0 125,0 0,-125 0,-125 250,0 250,0 0,-250 0,-250 125,0 125,0 0,-250 0,-250 -250,0 -250,0 0,125 0,125 -125,0 -125,0 0,-250 0,-250 -125,0 -125,0 0,250 0,250 -250,0 -250,0 0,125 0,125 125,0 125,0 0,125 0,125 125,0 125,0 0,125 0,125 -125,0 -125,0 0,-125 0,-125 -125,0 -125,0 0,125 0,125 -125,0 -125,0 0,125 0,125 125,0 125,0 0,125 0,125 125,0 125,0 0,125 0,125 -125,0 -125,0 0,-125 0,-125 -125,0 -125,0 0,125 0,125 -125,0 -125,0 0,-375 0,-375 125,0 125,0 0,-250 0,-250 -125,0 -125,0 0,-125 0,-125 125,0 125,0 0,-125 0,-125 125,0 125,0 0,-125 0,-125 -125,0 -125,0 0,-125 0,-125 125,0 125,0 0,-125 0,-125 -250,0 -250,0 0,-125 0,-125 -125,0 -125,0 0,125 0,125 -125,0 -125,0 0,-125 0,-125 125,0 125,0 0,-250 0,-250 -250,0 -250,0 0,125 0,125 -375,0 -375,0 0,-125 0,-125 -125,0 -125,0 0,-125 0,-125 -125,0 -125,0 0,-125 0,-125 125,0 125,0 0,-125 0,-125 125,0 125,0 0,125 0,125 -125,0 -125,0 0,125 0,125 125,0 125,0 0,125 0,125 125,0 125,0 0,-125 0,-125 125,0 125,0 0,-125 0,-125 -125,0 -125,0 0,-125 0,-125 375,0 375,0 0,250 0,250 125,0 125,0 0,125 0,125 125,0 125,0 0,125 0,125 125,0 125,0 0,125 0,125 250,0 250,0 0,-125 0,-125 125,0 125,0 0,-125 0,-125 125,0 125,0 0,-250 0,-250 -250,0 -250,0 0,125 0,125 -125,0 -125,0 0,125 0,125 -125,0 -125,0 0,-125 0,-125 -125,0 -125,0 0,-125 0,-125 -125,0 -125,0 0,-125 0,-125 125,0 125,0 0,-125 0,-125 125,0 125,0 0,-125 0,-125 -125,0 -125,0 0,-250 0,-250 125,0 125,0 0,-250 0,-250 -125,0 -125,0 0,-125 0,-125 125,0 125,0 0,125 0,125 125,0 125,0 0,125 0,125 125,0 125,0 0,-250 0,-250 125,0 125,0 0,-125 0,-125 125,0 125,0 0,-125 0,-125 250,0 250,0 0,125 0,125 125,0 125,0 0,-125 0,-125 125,0 125,0 0,375 z m -750,250 0,125 -250,0 -250,0 0,125 0,125 -125,0 -125,0 0,250 0,250 375,0 375,0 0,125 0,125 125,0 125,0 0,-125 0,-125 125,0 125,0 0,-125 0,-125 -125,0 -125,0 0,-375 0,-375 -125,0 -125,0 0,125 z m -1500,1750 0,125 125,0 125,0 0,-125 0,-125 -125,0 -125,0 0,125 z m 3750,250 0,125 125,0 125,0 0,-125 0,-125 -125,0 -125,0 0,125 z m -500,0 0,125 -125,0 -125,0 0,-125 0,-125 -125,0 -125,0 0,125 0,125 -125,0 -125,0 0,125 0,125 -125,0 -125,0 0,250 0,250 125,0 125,0 0,125 0,125 250,0 250,0 0,-125 0,-125 -125,0 -125,0 0,-375 0,-375 125,0 125,0 0,250 0,250 125,0 125,0 0,-250 0,-250 125,0 125,0 0,-125 0,-125 -125,0 -125,0 0,125 z m -4250,250 0,125 125,0 125,0 0,-125 0,-125 -125,0 -125,0 0,125 z m 2250,250 0,125 -125,0 -125,0 0,125 0,125 -125,0 -125,0 0,250 0,250 -125,0 -125,0 0,125 0,125 125,0 125,0 0,-125 0,-125 250,0 250,0 0,125 0,125 250,0 250,0 0,-375 0,-375 125,0 125,0 0,-125 0,-125 -250,0 -250,0 0,-125 0,-125 -125,0 -125,0 0,125 z m 750,750 0,125 125,0 125,0 0,-125 0,-125 -125,0 -125,0 0,125 z m -250,1750 0,125 -125,0 -125,0 0,125 0,125 125,0 125,0 0,-125 0,-125 125,0 125,0 0,-125 0,-125 -125,0 -125,0 0,125 z"
       id="path10"
       inkscape:connector-curvature="0"
       style="fill:#ffffff" />
    <path
       d="m 2750,2500 0,-250 125,0 125,0 0,250 0,250 -125,0 -125,0 0,-250 z"
       id="path12"
       inkscape:connector-curvature="0"
       style="fill:#ffffff" />
    <path
       d="m 3500,6125 0,-125 125,0 125,0 0,125 0,125 -125,0 -125,0 0,-125 z"
       id="path14"
       inkscape:connector-curvature="0"
       style="fill:#ffffff" />
    <path
       d="m 4000,6125 0,-125 125,0 125,0 0,125 0,125 -125,0 -125,0 0,-125 z"
       id="path16"
       inkscape:connector-curvature="0"
       style="fill:#ffffff" />
    <path
       d="m 4500,5625 0,-125 500,0 500,0 0,-500 0,-500 125,0 125,0 0,625 0,625 -625,0 -625,0 0,-125 z"
       id="path22"
       inkscape:connector-curvature="0"
       style="fill:#ffffff" />
    <path
       d="m 1000,4875 0,-375 375,0 375,0 0,375 0,375 -375,0 -375,0 0,-375 z"
       id="path24"
       inkscape:connector-curvature="0"
       style="fill:#ffffff" />
    <path
       d="m 4500,4875 0,-375 375,0 375,0 0,375 0,375 -375,0 -375,0 0,-375 z"
       id="path26"
       inkscape:connector-curvature="0"
       style="fill:#ffffff" />
    <path
       d="m 5000,2375 0,-125 -250,0 -250,0 0,-125 0,-125 250,0 250,0 0,125 0,125 125,0 125,0 0,-125 0,-125 125,0 125,0 0,125 0,125 -125,0 -125,0 0,125 0,125 -125,0 -125,0 0,-125 z"
       id="path28"
       inkscape:connector-curvature="0"
       style="fill:#ffffff" />
    <path
       d="m 5750,2375 0,-125 125,0 125,0 0,125 0,125 -125,0 -125,0 0,-125 z"
       id="path30"
       inkscape:connector-curvature="0"
       style="fill:#ffffff" />
    <path
       d="m 0,1625 0,-125 750,0 750,0 0,-750 0,-750 125,0 125,0 0,875 0,875 -875,0 -875,0 0,-125 z"
       id="path32"
       inkscape:connector-curvature="0"
       style="fill:#ffffff" />
    <path
       d="m 5500,1250 0,-500 -500,0 -500,0 0,-125 0,-125 625,0 625,0 0,625 0,625 -125,0 -125,0 0,-500 z"
       id="path36"
       inkscape:connector-curvature="0"
       style="fill:#ffffff" />
    <path
       d="m 6000,1000 0,-750 -750,0 -750,0 0,-125 0,-125 875,0 875,0 0,875 0,875 -125,0 -125,0 0,-750 z"
       id="path38"
       inkscape:connector-curvature="0"
       style="fill:#ffffff" />
    <path
       d="m 0,1125 0,-125 500,0 500,0 0,-500 0,-500 125,0 125,0 0,625 0,625 -625,0 -625,0 0,-125 z"
       id="path40"
       inkscape:connector-curvature="0"
       style="fill:#ffffff" />
    <path
       d="M 0,375 0,0 l 375,0 375,0 0,375 0,375 -375,0 -375,0 0,-375 z"
       id="path42"
       inkscape:connector-curvature="0"
       style="fill:#ffffff" />
  </g>
</svg>
