<?xml version="1.0" encoding="UTF-8" standalone="no"?>
<svg
   xmlns:dc="http://purl.org/dc/elements/1.1/"
   xmlns:cc="http://creativecommons.org/ns#"
   xmlns:rdf="http://www.w3.org/1999/02/22-rdf-syntax-ns#"
   xmlns:svg="http://www.w3.org/2000/svg"
   xmlns="http://www.w3.org/2000/svg"
   xmlns:xlink="http://www.w3.org/1999/xlink"
   xmlns:sodipodi="http://sodipodi.sourceforge.net/DTD/sodipodi-0.dtd"
   xmlns:inkscape="http://www.inkscape.org/namespaces/inkscape"
   version="1.1"
   width="1600"
   height="1600"
   viewBox="0 0 1600 1600"
   id="svg2"
   inkscape:version="0.48.4 r9939"
   sodipodi:docname="1436977610-8440.svg">
  <metadata
     id="metadata447">
    <rdf:RDF>
      <cc:Work
         rdf:about="">
        <dc:format>image/svg+xml</dc:format>
        <dc:type
           rdf:resource="http://purl.org/dc/dcmitype/StillImage" />
        <dc:title></dc:title>
      </cc:Work>
    </rdf:RDF>
  </metadata>
  <sodipodi:namedview
     pagecolor="#ffffff"
     bordercolor="#666666"
     borderopacity="1"
     objecttolerance="10"
     gridtolerance="10"
     guidetolerance="10"
     inkscape:pageopacity="0"
     inkscape:pageshadow="2"
     inkscape:window-width="2560"
     inkscape:window-height="1381"
     id="namedview445"
     showgrid="false"
     fit-margin-top="0"
     fit-margin-left="0"
     fit-margin-right="0"
     fit-margin-bottom="0"
     inkscape:zoom="0.23976609"
     inkscape:cx="428.49812"
     inkscape:cy="617.96457"
     inkscape:window-x="1272"
     inkscape:window-y="-8"
     inkscape:window-maximized="1"
     inkscape:current-layer="svg2" />
  <desc
     id="desc4" />
  <rect
     style="color:#000000;fill:#ffffff;fill-opacity:1;fill-rule:nonzero;stroke:none;stroke-width:12;marker:none;visibility:visible;display:inline;overflow:visible;enable-background:accumulate"
     id="rect3424"
     width="1600"
     height="1600"
     x="0"
     y="0" />
  <defs
     id="defs8">
    <rect
       id="p"
       width="12"
       height="12"
       x="0"
       y="0" />
  </defs>
  <g
     id="g11"
     transform="matrix(3.3482143,0,0,3.3482143,217.41071,217.41071)"
     style="fill:#ffffff">
    <use
       x="48"
       y="48"
       xlink:href="#p"
       id="use13"
       width="348"
       height="348"
       style="fill:#ffffff" />
    <use
       x="48"
       y="60"
       xlink:href="#p"
       id="use15"
       width="348"
       height="348"
       style="fill:#ffffff" />
    <use
       x="48"
       y="72"
       xlink:href="#p"
       id="use17"
       width="348"
       height="348"
       style="fill:#ffffff" />
    <use
       x="48"
       y="84"
       xlink:href="#p"
       id="use19"
       width="348"
       height="348"
       style="fill:#ffffff" />
    <use
       x="48"
       y="96"
       xlink:href="#p"
       id="use21"
       width="348"
       height="348"
       style="fill:#ffffff" />
    <use
       x="48"
       y="108"
       xlink:href="#p"
       id="use23"
       width="348"
       height="348"
       style="fill:#ffffff" />
    <use
       x="48"
       y="120"
       xlink:href="#p"
       id="use25"
       width="348"
       height="348"
       style="fill:#ffffff" />
    <use
       x="48"
       y="144"
       xlink:href="#p"
       id="use27"
       width="348"
       height="348"
       style="fill:#ffffff" />
    <use
       x="48"
       y="180"
       xlink:href="#p"
       id="use29"
       width="348"
       height="348"
       style="fill:#ffffff" />
    <use
       x="48"
       y="216"
       xlink:href="#p"
       id="use31"
       width="348"
       height="348"
       style="fill:#ffffff" />
    <use
       x="48"
       y="228"
       xlink:href="#p"
       id="use33"
       width="348"
       height="348"
       style="fill:#ffffff" />
    <use
       x="48"
       y="240"
       xlink:href="#p"
       id="use35"
       width="348"
       height="348"
       style="fill:#ffffff" />
    <use
       x="48"
       y="252"
       xlink:href="#p"
       id="use37"
       width="348"
       height="348"
       style="fill:#ffffff" />
    <use
       x="48"
       y="264"
       xlink:href="#p"
       id="use39"
       width="348"
       height="348"
       style="fill:#ffffff" />
    <use
       x="48"
       y="276"
       xlink:href="#p"
       id="use41"
       width="348"
       height="348"
       style="fill:#ffffff" />
    <use
       x="48"
       y="288"
       xlink:href="#p"
       id="use43"
       width="348"
       height="348"
       style="fill:#ffffff" />
    <use
       x="60"
       y="48"
       xlink:href="#p"
       id="use45"
       width="348"
       height="348"
       style="fill:#ffffff" />
    <use
       x="60"
       y="120"
       xlink:href="#p"
       id="use47"
       width="348"
       height="348"
       style="fill:#ffffff" />
    <use
       x="60"
       y="144"
       xlink:href="#p"
       id="use49"
       width="348"
       height="348"
       style="fill:#ffffff" />
    <use
       x="60"
       y="168"
       xlink:href="#p"
       id="use51"
       width="348"
       height="348"
       style="fill:#ffffff" />
    <use
       x="60"
       y="180"
       xlink:href="#p"
       id="use53"
       width="348"
       height="348"
       style="fill:#ffffff" />
    <use
       x="60"
       y="192"
       xlink:href="#p"
       id="use55"
       width="348"
       height="348"
       style="fill:#ffffff" />
    <use
       x="60"
       y="216"
       xlink:href="#p"
       id="use57"
       width="348"
       height="348"
       style="fill:#ffffff" />
    <use
       x="60"
       y="288"
       xlink:href="#p"
       id="use59"
       width="348"
       height="348"
       style="fill:#ffffff" />
    <use
       x="72"
       y="48"
       xlink:href="#p"
       id="use61"
       width="348"
       height="348"
       style="fill:#ffffff" />
    <use
       x="72"
       y="72"
       xlink:href="#p"
       id="use63"
       width="348"
       height="348"
       style="fill:#ffffff" />
    <use
       x="72"
       y="84"
       xlink:href="#p"
       id="use65"
       width="348"
       height="348"
       style="fill:#ffffff" />
    <use
       x="72"
       y="96"
       xlink:href="#p"
       id="use67"
       width="348"
       height="348"
       style="fill:#ffffff" />
    <use
       x="72"
       y="120"
       xlink:href="#p"
       id="use69"
       width="348"
       height="348"
       style="fill:#ffffff" />
    <use
       x="72"
       y="156"
       xlink:href="#p"
       id="use71"
       width="348"
       height="348"
       style="fill:#ffffff" />
    <use
       x="72"
       y="180"
       xlink:href="#p"
       id="use73"
       width="348"
       height="348"
       style="fill:#ffffff" />
    <use
       x="72"
       y="192"
       xlink:href="#p"
       id="use75"
       width="348"
       height="348"
       style="fill:#ffffff" />
    <use
       x="72"
       y="216"
       xlink:href="#p"
       id="use77"
       width="348"
       height="348"
       style="fill:#ffffff" />
    <use
       x="72"
       y="240"
       xlink:href="#p"
       id="use79"
       width="348"
       height="348"
       style="fill:#ffffff" />
    <use
       x="72"
       y="252"
       xlink:href="#p"
       id="use81"
       width="348"
       height="348"
       style="fill:#ffffff" />
    <use
       x="72"
       y="264"
       xlink:href="#p"
       id="use83"
       width="348"
       height="348"
       style="fill:#ffffff" />
    <use
       x="72"
       y="288"
       xlink:href="#p"
       id="use85"
       width="348"
       height="348"
       style="fill:#ffffff" />
    <use
       x="84"
       y="48"
       xlink:href="#p"
       id="use87"
       width="348"
       height="348"
       style="fill:#ffffff" />
    <use
       x="84"
       y="72"
       xlink:href="#p"
       id="use89"
       width="348"
       height="348"
       style="fill:#ffffff" />
    <use
       x="84"
       y="84"
       xlink:href="#p"
       id="use91"
       width="348"
       height="348"
       style="fill:#ffffff" />
    <use
       x="84"
       y="96"
       xlink:href="#p"
       id="use93"
       width="348"
       height="348"
       style="fill:#ffffff" />
    <use
       x="84"
       y="120"
       xlink:href="#p"
       id="use95"
       width="348"
       height="348"
       style="fill:#ffffff" />
    <use
       x="84"
       y="144"
       xlink:href="#p"
       id="use97"
       width="348"
       height="348"
       style="fill:#ffffff" />
    <use
       x="84"
       y="156"
       xlink:href="#p"
       id="use99"
       width="348"
       height="348"
       style="fill:#ffffff" />
    <use
       x="84"
       y="180"
       xlink:href="#p"
       id="use101"
       width="348"
       height="348"
       style="fill:#ffffff" />
    <use
       x="84"
       y="216"
       xlink:href="#p"
       id="use103"
       width="348"
       height="348"
       style="fill:#ffffff" />
    <use
       x="84"
       y="240"
       xlink:href="#p"
       id="use105"
       width="348"
       height="348"
       style="fill:#ffffff" />
    <use
       x="84"
       y="252"
       xlink:href="#p"
       id="use107"
       width="348"
       height="348"
       style="fill:#ffffff" />
    <use
       x="84"
       y="264"
       xlink:href="#p"
       id="use109"
       width="348"
       height="348"
       style="fill:#ffffff" />
    <use
       x="84"
       y="288"
       xlink:href="#p"
       id="use111"
       width="348"
       height="348"
       style="fill:#ffffff" />
    <use
       x="96"
       y="48"
       xlink:href="#p"
       id="use113"
       width="348"
       height="348"
       style="fill:#ffffff" />
    <use
       x="96"
       y="72"
       xlink:href="#p"
       id="use115"
       width="348"
       height="348"
       style="fill:#ffffff" />
    <use
       x="96"
       y="84"
       xlink:href="#p"
       id="use117"
       width="348"
       height="348"
       style="fill:#ffffff" />
    <use
       x="96"
       y="96"
       xlink:href="#p"
       id="use119"
       width="348"
       height="348"
       style="fill:#ffffff" />
    <use
       x="96"
       y="120"
       xlink:href="#p"
       id="use121"
       width="348"
       height="348"
       style="fill:#ffffff" />
    <use
       x="96"
       y="156"
       xlink:href="#p"
       id="use123"
       width="348"
       height="348"
       style="fill:#ffffff" />
    <use
       x="96"
       y="216"
       xlink:href="#p"
       id="use125"
       width="348"
       height="348"
       style="fill:#ffffff" />
    <use
       x="96"
       y="240"
       xlink:href="#p"
       id="use127"
       width="348"
       height="348"
       style="fill:#ffffff" />
    <use
       x="96"
       y="252"
       xlink:href="#p"
       id="use129"
       width="348"
       height="348"
       style="fill:#ffffff" />
    <use
       x="96"
       y="264"
       xlink:href="#p"
       id="use131"
       width="348"
       height="348"
       style="fill:#ffffff" />
    <use
       x="96"
       y="288"
       xlink:href="#p"
       id="use133"
       width="348"
       height="348"
       style="fill:#ffffff" />
    <use
       x="108"
       y="48"
       xlink:href="#p"
       id="use135"
       width="348"
       height="348"
       style="fill:#ffffff" />
    <use
       x="108"
       y="120"
       xlink:href="#p"
       id="use137"
       width="348"
       height="348"
       style="fill:#ffffff" />
    <use
       x="108"
       y="156"
       xlink:href="#p"
       id="use139"
       width="348"
       height="348"
       style="fill:#ffffff" />
    <use
       x="108"
       y="168"
       xlink:href="#p"
       id="use141"
       width="348"
       height="348"
       style="fill:#ffffff" />
    <use
       x="108"
       y="192"
       xlink:href="#p"
       id="use143"
       width="348"
       height="348"
       style="fill:#ffffff" />
    <use
       x="108"
       y="216"
       xlink:href="#p"
       id="use145"
       width="348"
       height="348"
       style="fill:#ffffff" />
    <use
       x="108"
       y="288"
       xlink:href="#p"
       id="use147"
       width="348"
       height="348"
       style="fill:#ffffff" />
    <use
       x="120"
       y="48"
       xlink:href="#p"
       id="use149"
       width="348"
       height="348"
       style="fill:#ffffff" />
    <use
       x="120"
       y="60"
       xlink:href="#p"
       id="use151"
       width="348"
       height="348"
       style="fill:#ffffff" />
    <use
       x="120"
       y="72"
       xlink:href="#p"
       id="use153"
       width="348"
       height="348"
       style="fill:#ffffff" />
    <use
       x="120"
       y="84"
       xlink:href="#p"
       id="use155"
       width="348"
       height="348"
       style="fill:#ffffff" />
    <use
       x="120"
       y="96"
       xlink:href="#p"
       id="use157"
       width="348"
       height="348"
       style="fill:#ffffff" />
    <use
       x="120"
       y="108"
       xlink:href="#p"
       id="use159"
       width="348"
       height="348"
       style="fill:#ffffff" />
    <use
       x="120"
       y="120"
       xlink:href="#p"
       id="use161"
       width="348"
       height="348"
       style="fill:#ffffff" />
    <use
       x="120"
       y="144"
       xlink:href="#p"
       id="use163"
       width="348"
       height="348"
       style="fill:#ffffff" />
    <use
       x="120"
       y="168"
       xlink:href="#p"
       id="use165"
       width="348"
       height="348"
       style="fill:#ffffff" />
    <use
       x="120"
       y="192"
       xlink:href="#p"
       id="use167"
       width="348"
       height="348"
       style="fill:#ffffff" />
    <use
       x="120"
       y="216"
       xlink:href="#p"
       id="use169"
       width="348"
       height="348"
       style="fill:#ffffff" />
    <use
       x="120"
       y="228"
       xlink:href="#p"
       id="use171"
       width="348"
       height="348"
       style="fill:#ffffff" />
    <use
       x="120"
       y="240"
       xlink:href="#p"
       id="use173"
       width="348"
       height="348"
       style="fill:#ffffff" />
    <use
       x="120"
       y="252"
       xlink:href="#p"
       id="use175"
       width="348"
       height="348"
       style="fill:#ffffff" />
    <use
       x="120"
       y="264"
       xlink:href="#p"
       id="use177"
       width="348"
       height="348"
       style="fill:#ffffff" />
    <use
       x="120"
       y="276"
       xlink:href="#p"
       id="use179"
       width="348"
       height="348"
       style="fill:#ffffff" />
    <use
       x="120"
       y="288"
       xlink:href="#p"
       id="use181"
       width="348"
       height="348"
       style="fill:#ffffff" />
    <use
       x="132"
       y="144"
       xlink:href="#p"
       id="use183"
       width="348"
       height="348"
       style="fill:#ffffff" />
    <use
       x="132"
       y="156"
       xlink:href="#p"
       id="use185"
       width="348"
       height="348"
       style="fill:#ffffff" />
    <use
       x="132"
       y="168"
       xlink:href="#p"
       id="use187"
       width="348"
       height="348"
       style="fill:#ffffff" />
    <use
       x="144"
       y="60"
       xlink:href="#p"
       id="use189"
       width="348"
       height="348"
       style="fill:#ffffff" />
    <use
       x="144"
       y="72"
       xlink:href="#p"
       id="use191"
       width="348"
       height="348"
       style="fill:#ffffff" />
    <use
       x="144"
       y="96"
       xlink:href="#p"
       id="use193"
       width="348"
       height="348"
       style="fill:#ffffff" />
    <use
       x="144"
       y="108"
       xlink:href="#p"
       id="use195"
       width="348"
       height="348"
       style="fill:#ffffff" />
    <use
       x="144"
       y="120"
       xlink:href="#p"
       id="use197"
       width="348"
       height="348"
       style="fill:#ffffff" />
    <use
       x="144"
       y="132"
       xlink:href="#p"
       id="use199"
       width="348"
       height="348"
       style="fill:#ffffff" />
    <use
       x="144"
       y="180"
       xlink:href="#p"
       id="use201"
       width="348"
       height="348"
       style="fill:#ffffff" />
    <use
       x="144"
       y="204"
       xlink:href="#p"
       id="use203"
       width="348"
       height="348"
       style="fill:#ffffff" />
    <use
       x="144"
       y="216"
       xlink:href="#p"
       id="use205"
       width="348"
       height="348"
       style="fill:#ffffff" />
    <use
       x="144"
       y="252"
       xlink:href="#p"
       id="use207"
       width="348"
       height="348"
       style="fill:#ffffff" />
    <use
       x="144"
       y="276"
       xlink:href="#p"
       id="use209"
       width="348"
       height="348"
       style="fill:#ffffff" />
    <use
       x="144"
       y="288"
       xlink:href="#p"
       id="use211"
       width="348"
       height="348"
       style="fill:#ffffff" />
    <use
       x="156"
       y="48"
       xlink:href="#p"
       id="use213"
       width="348"
       height="348"
       style="fill:#ffffff" />
    <use
       x="156"
       y="60"
       xlink:href="#p"
       id="use215"
       width="348"
       height="348"
       style="fill:#ffffff" />
    <use
       x="156"
       y="72"
       xlink:href="#p"
       id="use217"
       width="348"
       height="348"
       style="fill:#ffffff" />
    <use
       x="156"
       y="84"
       xlink:href="#p"
       id="use219"
       width="348"
       height="348"
       style="fill:#ffffff" />
    <use
       x="156"
       y="132"
       xlink:href="#p"
       id="use221"
       width="348"
       height="348"
       style="fill:#ffffff" />
    <use
       x="156"
       y="144"
       xlink:href="#p"
       id="use223"
       width="348"
       height="348"
       style="fill:#ffffff" />
    <use
       x="156"
       y="168"
       xlink:href="#p"
       id="use225"
       width="348"
       height="348"
       style="fill:#ffffff" />
    <use
       x="156"
       y="180"
       xlink:href="#p"
       id="use227"
       width="348"
       height="348"
       style="fill:#ffffff" />
    <use
       x="156"
       y="192"
       xlink:href="#p"
       id="use229"
       width="348"
       height="348"
       style="fill:#ffffff" />
    <use
       x="156"
       y="204"
       xlink:href="#p"
       id="use231"
       width="348"
       height="348"
       style="fill:#ffffff" />
    <use
       x="156"
       y="240"
       xlink:href="#p"
       id="use233"
       width="348"
       height="348"
       style="fill:#ffffff" />
    <use
       x="168"
       y="120"
       xlink:href="#p"
       id="use235"
       width="348"
       height="348"
       style="fill:#ffffff" />
    <use
       x="168"
       y="132"
       xlink:href="#p"
       id="use237"
       width="348"
       height="348"
       style="fill:#ffffff" />
    <use
       x="168"
       y="144"
       xlink:href="#p"
       id="use239"
       width="348"
       height="348"
       style="fill:#ffffff" />
    <use
       x="168"
       y="168"
       xlink:href="#p"
       id="use241"
       width="348"
       height="348"
       style="fill:#ffffff" />
    <use
       x="168"
       y="180"
       xlink:href="#p"
       id="use243"
       width="348"
       height="348"
       style="fill:#ffffff" />
    <use
       x="168"
       y="204"
       xlink:href="#p"
       id="use245"
       width="348"
       height="348"
       style="fill:#ffffff" />
    <use
       x="168"
       y="228"
       xlink:href="#p"
       id="use247"
       width="348"
       height="348"
       style="fill:#ffffff" />
    <use
       x="168"
       y="276"
       xlink:href="#p"
       id="use249"
       width="348"
       height="348"
       style="fill:#ffffff" />
    <use
       x="180"
       y="60"
       xlink:href="#p"
       id="use251"
       width="348"
       height="348"
       style="fill:#ffffff" />
    <use
       x="180"
       y="72"
       xlink:href="#p"
       id="use253"
       width="348"
       height="348"
       style="fill:#ffffff" />
    <use
       x="180"
       y="132"
       xlink:href="#p"
       id="use255"
       width="348"
       height="348"
       style="fill:#ffffff" />
    <use
       x="180"
       y="168"
       xlink:href="#p"
       id="use257"
       width="348"
       height="348"
       style="fill:#ffffff" />
    <use
       x="180"
       y="180"
       xlink:href="#p"
       id="use259"
       width="348"
       height="348"
       style="fill:#ffffff" />
    <use
       x="180"
       y="204"
       xlink:href="#p"
       id="use261"
       width="348"
       height="348"
       style="fill:#ffffff" />
    <use
       x="180"
       y="240"
       xlink:href="#p"
       id="use263"
       width="348"
       height="348"
       style="fill:#ffffff" />
    <use
       x="180"
       y="264"
       xlink:href="#p"
       id="use265"
       width="348"
       height="348"
       style="fill:#ffffff" />
    <use
       x="192"
       y="48"
       xlink:href="#p"
       id="use267"
       width="348"
       height="348"
       style="fill:#ffffff" />
    <use
       x="192"
       y="84"
       xlink:href="#p"
       id="use269"
       width="348"
       height="348"
       style="fill:#ffffff" />
    <use
       x="192"
       y="120"
       xlink:href="#p"
       id="use271"
       width="348"
       height="348"
       style="fill:#ffffff" />
    <use
       x="192"
       y="144"
       xlink:href="#p"
       id="use273"
       width="348"
       height="348"
       style="fill:#ffffff" />
    <use
       x="192"
       y="156"
       xlink:href="#p"
       id="use275"
       width="348"
       height="348"
       style="fill:#ffffff" />
    <use
       x="192"
       y="168"
       xlink:href="#p"
       id="use277"
       width="348"
       height="348"
       style="fill:#ffffff" />
    <use
       x="192"
       y="204"
       xlink:href="#p"
       id="use279"
       width="348"
       height="348"
       style="fill:#ffffff" />
    <use
       x="192"
       y="216"
       xlink:href="#p"
       id="use281"
       width="348"
       height="348"
       style="fill:#ffffff" />
    <use
       x="192"
       y="252"
       xlink:href="#p"
       id="use283"
       width="348"
       height="348"
       style="fill:#ffffff" />
    <use
       x="192"
       y="264"
       xlink:href="#p"
       id="use285"
       width="348"
       height="348"
       style="fill:#ffffff" />
    <use
       x="204"
       y="156"
       xlink:href="#p"
       id="use287"
       width="348"
       height="348"
       style="fill:#ffffff" />
    <use
       x="204"
       y="168"
       xlink:href="#p"
       id="use289"
       width="348"
       height="348"
       style="fill:#ffffff" />
    <use
       x="204"
       y="216"
       xlink:href="#p"
       id="use291"
       width="348"
       height="348"
       style="fill:#ffffff" />
    <use
       x="204"
       y="240"
       xlink:href="#p"
       id="use293"
       width="348"
       height="348"
       style="fill:#ffffff" />
    <use
       x="204"
       y="264"
       xlink:href="#p"
       id="use295"
       width="348"
       height="348"
       style="fill:#ffffff" />
    <use
       x="204"
       y="276"
       xlink:href="#p"
       id="use297"
       width="348"
       height="348"
       style="fill:#ffffff" />
    <use
       x="216"
       y="48"
       xlink:href="#p"
       id="use299"
       width="348"
       height="348"
       style="fill:#ffffff" />
    <use
       x="216"
       y="60"
       xlink:href="#p"
       id="use301"
       width="348"
       height="348"
       style="fill:#ffffff" />
    <use
       x="216"
       y="72"
       xlink:href="#p"
       id="use303"
       width="348"
       height="348"
       style="fill:#ffffff" />
    <use
       x="216"
       y="84"
       xlink:href="#p"
       id="use305"
       width="348"
       height="348"
       style="fill:#ffffff" />
    <use
       x="216"
       y="96"
       xlink:href="#p"
       id="use307"
       width="348"
       height="348"
       style="fill:#ffffff" />
    <use
       x="216"
       y="108"
       xlink:href="#p"
       id="use309"
       width="348"
       height="348"
       style="fill:#ffffff" />
    <use
       x="216"
       y="120"
       xlink:href="#p"
       id="use311"
       width="348"
       height="348"
       style="fill:#ffffff" />
    <use
       x="216"
       y="144"
       xlink:href="#p"
       id="use313"
       width="348"
       height="348"
       style="fill:#ffffff" />
    <use
       x="216"
       y="168"
       xlink:href="#p"
       id="use315"
       width="348"
       height="348"
       style="fill:#ffffff" />
    <use
       x="216"
       y="180"
       xlink:href="#p"
       id="use317"
       width="348"
       height="348"
       style="fill:#ffffff" />
    <use
       x="216"
       y="216"
       xlink:href="#p"
       id="use319"
       width="348"
       height="348"
       style="fill:#ffffff" />
    <use
       x="216"
       y="288"
       xlink:href="#p"
       id="use321"
       width="348"
       height="348"
       style="fill:#ffffff" />
    <use
       x="228"
       y="48"
       xlink:href="#p"
       id="use323"
       width="348"
       height="348"
       style="fill:#ffffff" />
    <use
       x="228"
       y="120"
       xlink:href="#p"
       id="use325"
       width="348"
       height="348"
       style="fill:#ffffff" />
    <use
       x="228"
       y="144"
       xlink:href="#p"
       id="use327"
       width="348"
       height="348"
       style="fill:#ffffff" />
    <use
       x="228"
       y="156"
       xlink:href="#p"
       id="use329"
       width="348"
       height="348"
       style="fill:#ffffff" />
    <use
       x="228"
       y="180"
       xlink:href="#p"
       id="use331"
       width="348"
       height="348"
       style="fill:#ffffff" />
    <use
       x="228"
       y="192"
       xlink:href="#p"
       id="use333"
       width="348"
       height="348"
       style="fill:#ffffff" />
    <use
       x="228"
       y="204"
       xlink:href="#p"
       id="use335"
       width="348"
       height="348"
       style="fill:#ffffff" />
    <use
       x="228"
       y="216"
       xlink:href="#p"
       id="use337"
       width="348"
       height="348"
       style="fill:#ffffff" />
    <use
       x="228"
       y="252"
       xlink:href="#p"
       id="use339"
       width="348"
       height="348"
       style="fill:#ffffff" />
    <use
       x="228"
       y="264"
       xlink:href="#p"
       id="use341"
       width="348"
       height="348"
       style="fill:#ffffff" />
    <use
       x="240"
       y="48"
       xlink:href="#p"
       id="use343"
       width="348"
       height="348"
       style="fill:#ffffff" />
    <use
       x="240"
       y="72"
       xlink:href="#p"
       id="use345"
       width="348"
       height="348"
       style="fill:#ffffff" />
    <use
       x="240"
       y="84"
       xlink:href="#p"
       id="use347"
       width="348"
       height="348"
       style="fill:#ffffff" />
    <use
       x="240"
       y="96"
       xlink:href="#p"
       id="use349"
       width="348"
       height="348"
       style="fill:#ffffff" />
    <use
       x="240"
       y="120"
       xlink:href="#p"
       id="use351"
       width="348"
       height="348"
       style="fill:#ffffff" />
    <use
       x="240"
       y="144"
       xlink:href="#p"
       id="use353"
       width="348"
       height="348"
       style="fill:#ffffff" />
    <use
       x="240"
       y="156"
       xlink:href="#p"
       id="use355"
       width="348"
       height="348"
       style="fill:#ffffff" />
    <use
       x="240"
       y="216"
       xlink:href="#p"
       id="use357"
       width="348"
       height="348"
       style="fill:#ffffff" />
    <use
       x="240"
       y="252"
       xlink:href="#p"
       id="use359"
       width="348"
       height="348"
       style="fill:#ffffff" />
    <use
       x="240"
       y="264"
       xlink:href="#p"
       id="use361"
       width="348"
       height="348"
       style="fill:#ffffff" />
    <use
       x="240"
       y="276"
       xlink:href="#p"
       id="use363"
       width="348"
       height="348"
       style="fill:#ffffff" />
    <use
       x="252"
       y="48"
       xlink:href="#p"
       id="use365"
       width="348"
       height="348"
       style="fill:#ffffff" />
    <use
       x="252"
       y="72"
       xlink:href="#p"
       id="use367"
       width="348"
       height="348"
       style="fill:#ffffff" />
    <use
       x="252"
       y="84"
       xlink:href="#p"
       id="use369"
       width="348"
       height="348"
       style="fill:#ffffff" />
    <use
       x="252"
       y="96"
       xlink:href="#p"
       id="use371"
       width="348"
       height="348"
       style="fill:#ffffff" />
    <use
       x="252"
       y="120"
       xlink:href="#p"
       id="use373"
       width="348"
       height="348"
       style="fill:#ffffff" />
    <use
       x="252"
       y="180"
       xlink:href="#p"
       id="use375"
       width="348"
       height="348"
       style="fill:#ffffff" />
    <use
       x="252"
       y="204"
       xlink:href="#p"
       id="use377"
       width="348"
       height="348"
       style="fill:#ffffff" />
    <use
       x="252"
       y="240"
       xlink:href="#p"
       id="use379"
       width="348"
       height="348"
       style="fill:#ffffff" />
    <use
       x="252"
       y="252"
       xlink:href="#p"
       id="use381"
       width="348"
       height="348"
       style="fill:#ffffff" />
    <use
       x="252"
       y="288"
       xlink:href="#p"
       id="use383"
       width="348"
       height="348"
       style="fill:#ffffff" />
    <use
       x="264"
       y="48"
       xlink:href="#p"
       id="use385"
       width="348"
       height="348"
       style="fill:#ffffff" />
    <use
       x="264"
       y="72"
       xlink:href="#p"
       id="use387"
       width="348"
       height="348"
       style="fill:#ffffff" />
    <use
       x="264"
       y="84"
       xlink:href="#p"
       id="use389"
       width="348"
       height="348"
       style="fill:#ffffff" />
    <use
       x="264"
       y="96"
       xlink:href="#p"
       id="use391"
       width="348"
       height="348"
       style="fill:#ffffff" />
    <use
       x="264"
       y="120"
       xlink:href="#p"
       id="use393"
       width="348"
       height="348"
       style="fill:#ffffff" />
    <use
       x="264"
       y="144"
       xlink:href="#p"
       id="use395"
       width="348"
       height="348"
       style="fill:#ffffff" />
    <use
       x="264"
       y="156"
       xlink:href="#p"
       id="use397"
       width="348"
       height="348"
       style="fill:#ffffff" />
    <use
       x="264"
       y="204"
       xlink:href="#p"
       id="use399"
       width="348"
       height="348"
       style="fill:#ffffff" />
    <use
       x="264"
       y="216"
       xlink:href="#p"
       id="use401"
       width="348"
       height="348"
       style="fill:#ffffff" />
    <use
       x="264"
       y="264"
       xlink:href="#p"
       id="use403"
       width="348"
       height="348"
       style="fill:#ffffff" />
    <use
       x="276"
       y="48"
       xlink:href="#p"
       id="use405"
       width="348"
       height="348"
       style="fill:#ffffff" />
    <use
       x="276"
       y="120"
       xlink:href="#p"
       id="use407"
       width="348"
       height="348"
       style="fill:#ffffff" />
    <use
       x="276"
       y="144"
       xlink:href="#p"
       id="use409"
       width="348"
       height="348"
       style="fill:#ffffff" />
    <use
       x="276"
       y="156"
       xlink:href="#p"
       id="use411"
       width="348"
       height="348"
       style="fill:#ffffff" />
    <use
       x="276"
       y="216"
       xlink:href="#p"
       id="use413"
       width="348"
       height="348"
       style="fill:#ffffff" />
    <use
       x="276"
       y="252"
       xlink:href="#p"
       id="use415"
       width="348"
       height="348"
       style="fill:#ffffff" />
    <use
       x="276"
       y="288"
       xlink:href="#p"
       id="use417"
       width="348"
       height="348"
       style="fill:#ffffff" />
    <use
       x="288"
       y="48"
       xlink:href="#p"
       id="use419"
       width="348"
       height="348"
       style="fill:#ffffff" />
    <use
       x="288"
       y="60"
       xlink:href="#p"
       id="use421"
       width="348"
       height="348"
       style="fill:#ffffff" />
    <use
       x="288"
       y="72"
       xlink:href="#p"
       id="use423"
       width="348"
       height="348"
       style="fill:#ffffff" />
    <use
       x="288"
       y="84"
       xlink:href="#p"
       id="use425"
       width="348"
       height="348"
       style="fill:#ffffff" />
    <use
       x="288"
       y="96"
       xlink:href="#p"
       id="use427"
       width="348"
       height="348"
       style="fill:#ffffff" />
    <use
       x="288"
       y="108"
       xlink:href="#p"
       id="use429"
       width="348"
       height="348"
       style="fill:#ffffff" />
    <use
       x="288"
       y="120"
       xlink:href="#p"
       id="use431"
       width="348"
       height="348"
       style="fill:#ffffff" />
    <use
       x="288"
       y="156"
       xlink:href="#p"
       id="use433"
       width="348"
       height="348"
       style="fill:#ffffff" />
    <use
       x="288"
       y="168"
       xlink:href="#p"
       id="use435"
       width="348"
       height="348"
       style="fill:#ffffff" />
    <use
       x="288"
       y="180"
       xlink:href="#p"
       id="use437"
       width="348"
       height="348"
       style="fill:#ffffff" />
    <use
       x="288"
       y="228"
       xlink:href="#p"
       id="use439"
       width="348"
       height="348"
       style="fill:#ffffff" />
    <use
       x="288"
       y="252"
       xlink:href="#p"
       id="use441"
       width="348"
       height="348"
       style="fill:#ffffff" />
    <use
       x="288"
       y="264"
       xlink:href="#p"
       id="use443"
       width="348"
       height="348"
       style="fill:#ffffff" />
  </g>
</svg>
