<?xml version="1.0" encoding="UTF-8" standalone="no"?>
<svg
   xmlns:dc="http://purl.org/dc/elements/1.1/"
   xmlns:cc="http://creativecommons.org/ns#"
   xmlns:rdf="http://www.w3.org/1999/02/22-rdf-syntax-ns#"
   xmlns:svg="http://www.w3.org/2000/svg"
   xmlns="http://www.w3.org/2000/svg"
   xmlns:sodipodi="http://sodipodi.sourceforge.net/DTD/sodipodi-0.dtd"
   xmlns:inkscape="http://www.inkscape.org/namespaces/inkscape"
   version="1.0"
   width="1600.0157"
   height="1600.0157"
   viewBox="0 0 1280.0126 1280.0126"
   preserveAspectRatio="xMidYMid meet"
   id="svg2"
   inkscape:version="0.48.4 r9939"
   sodipodi:docname="link.svg">
  <defs
     id="defs40" />
  <sodipodi:namedview
     pagecolor="#ffffff"
     bordercolor="#666666"
     borderopacity="1"
     objecttolerance="10"
     gridtolerance="10"
     guidetolerance="10"
     inkscape:pageopacity="0"
     inkscape:pageshadow="2"
     inkscape:window-width="2560"
     inkscape:window-height="1381"
     id="namedview38"
     showgrid="false"
     fit-margin-top="0"
     fit-margin-left="0"
     fit-margin-right="0"
     fit-margin-bottom="0"
     inkscape:zoom="0.35355339"
     inkscape:cx="2502.2569"
     inkscape:cy="486.85565"
     inkscape:window-x="1272"
     inkscape:window-y="-8"
     inkscape:window-maximized="1"
     inkscape:current-layer="svg2" />
  <metadata
     id="metadata4">
Created by potrace 1.12, written by Peter Selinger 2001-2015
<rdf:RDF>
  <cc:Work
     rdf:about="">
    <dc:format>image/svg+xml</dc:format>
    <dc:type
       rdf:resource="http://purl.org/dc/dcmitype/StillImage" />
    <dc:title></dc:title>
  </cc:Work>
</rdf:RDF>
</metadata>
  <g
     id="g3021"
     transform="scale(0.8,0.8)"
     style="fill:#ffffff">
    <path
       id="path3023"
       d="m 0,0 1600.0157,0 0,1600.0157 -1600.0157,0 z"
       style="fill:#ffffff;fill-opacity:1;fill-rule:nonzero;stroke:none"
       inkscape:connector-curvature="0" />
  </g>
  <path
     id="path36"
     style="fill:#ffffff;stroke:none"
     d="m 302.5063,390.0063 0,87.5 12.5,0 12.5,0 0,-75 0,-75 75,0 75,0 0,-12.5 0,-12.5 -87.5,0 -87.5,0 0,87.5 z m 250.00363,550 0,12.5 12.5,0 12.5,0 0,-12.5 0,-12.5 -12.5,0 -12.5,0 0,12.5 z m 50,0 0,12.5 12.5,0 12.5,0 0,-12.5 0,-12.5 -12.5,0 -12.5,0 0,12.5 z m -200,-225 0,12.5 12.5,0 12.5,0 0,-12.5 0,-12.5 -12.5,0 -12.5,0 0,12.5 z m 325,12.5 0,25 12.5,0 12.5,0 0,-12.5 0,-12.5 12.5,0 12.5,0 0,-12.5 0,-12.5 -25,0 -25,0 0,25 z M 327.5063,465.00452 l 0,12.5 -12.5,0 -12.5,0 0,12.5 0,12.5 12.5,0 12.5,0 0,12.5 0,12.5 12.5,0 12.5,0 0,12.5 0,12.5 -12.5,0 -12.5,0 0,12.5 0,12.5 12.5,0 12.5,0 0,-12.5 0,-12.5 12.5,0 12.5,0 0,12.5 0,12.5 37.5,0 37.5,0 0,-12.5 0,-12.5 -25,0 -25,0 0,-12.5 0,-12.5 -25,0 -25,0 0,-12.5 0,-12.5 -12.5,0 -12.5,0 0,-12.5 0,-12.5 12.5,0 12.5,0 0,-12.5 0,-12.5 -12.5,0 -12.5,0 0,12.5 z m 325.00363,-24.99822 0,12.5 -12.5,0 -12.5,0 0,-12.5 0,-12.5 -12.5,0 -12.5,0 0,12.5 0,12.5 12.5,0 12.5,0 0,12.5 0,12.5 12.5,0 12.5,0 0,-12.5 0,-12.5 12.5,0 12.5,0 0,25 0,25 12.5,0 12.5,0 0,-25 0,-25 -12.5,0 -12.5,0 0,-12.5 0,-12.5 -12.5,0 -12.5,0 0,12.5 z m -100,-25 0,12.5 12.5,0 12.5,0 0,-12.5 0,-12.5 -12.5,0 -12.5,0 0,12.5 z m 100,-25 0,12.5 12.5,0 12.5,0 0,-12.5 0,-12.5 -12.5,0 -12.5,0 0,12.5 z m -100.00353,-62.5 0,25 -12.5,0 -12.5,0 0,-12.5 0,-12.5 -12.5,0 -12.5,0 0,12.5 0,12.5 12.5,0 12.5,0 0,25 0,25 12.5,0 12.5,0 0,-25 0,-25 12.5,0 12.5,0 0,25 0,25 12.5,0 12.5,0 0,12.5 0,12.5 -25,0 -25,0 0,25 0,25 -12.5,0 -12.5,0 0,12.5 0,12.5 25,0 25,0 0,37.5 0,37.5 -12.5,0 -12.5,0 0,12.5 0,12.5 12.5,0 12.5,0 0,-12.5 0,-12.5 12.5,0 12.5,0 0,-37.5 0,-37.5 12.5,0 12.5,0 0,25 0,25 12.5,0 12.5,0 0,12.5 0,12.5 -12.5,0 -12.5,0 0,12.5 0,12.5 12.5,0 12.5,0 0,12.5 0,12.5 -12.5,0 -12.5,0 0,12.5 0,12.5 25,0 25,0 0,-50 0,-50 -12.5,0 -12.5,0 0,-37.5 0,-37.5 12.5,0 12.5,0 0,-12.5 0,-12.5 12.5,0 12.5,0 0,25 0,25 12.5,0 12.5,0 0,25 0,25 12.5,0 12.5,0 0,12.5 0,12.5 12.5,0 12.5,0 0,25 0,25 12.5,0 12.5,0 0,12.5 0,12.5 -12.5,0 -12.5,0 0,12.5 0,12.5 12.5,0 12.5,0 0,12.5 0,12.5 -25,0 -25,0 0,-50 0,-50 -12.5,0 -12.5,0 0,-12.5 0,-12.5 -12.5,0 -12.5,0 0,12.5 0,12.5 12.5,0 12.5,0 0,12.5 0,12.5 -12.5,0 -12.5,0 0,12.5 0,12.5 12.5,0 12.5,0 0,25 0,25 -12.5,0 -12.5,0 0,12.5 0,12.5 -12.5,0 -12.5,0 0,-12.5 0,-12.5 -12.5,0 -12.5,0 0,12.5 0,12.5 -12.5,0 -12.5,0 0,12.5 0,12.5 -12.5,0 -12.5,0 0,12.5 0,12.5 -25,0 -25,0 0,-12.5 0,-12.5 12.5,0 12.5,0 0,-25 0,-25 25,0 25,0 0,-12.5 0,-12.5 -12.5,0 -12.5,0 0,-25 0,-25 -12.5,0 -12.5,0 0,37.5 0,37.5 -12.5,0 -12.5,0 0,-12.5 0,-12.5 -12.5,0 -12.5,0 0,-12.5 0,-12.5 -12.5,0 -12.5,0 0,25 0,25 -12.5,0 -12.5,0 0,-12.5 0,-12.5 -12.5,0 -12.5,0 0,-12.5 0,-12.5 12.5,0 12.5,0 0,-12.5 0,-12.5 12.5,0 12.5,0 0,-12.5 0,-12.5 12.5,0 12.5,0 0,-25 0,-25 12.5,0 12.5,0 0,-12.5 0,-12.5 -12.5,0 -12.5,0 0,12.5 0,12.5 -12.5,0 -12.5,0 0,-25 0,-25 -37.5,0 -37.5,0 0,12.5 0,12.5 -12.5,0 -12.5,0 0,-12.5 0,-12.5 -12.5,0 -12.5,0 0,12.5 0,12.5 -12.5,0 -12.5,0 0,37.5 0,37.5 -12.5,0 -12.5,0 0,12.5 0,12.5 12.5,0 12.5,0 0,12.5 0,12.5 -12.5,0 -12.5,0 0,12.5 0,12.5 12.5,0 12.5,0 0,-12.5 0,-12.5 12.5,0 12.5,0 0,-12.5 0,-12.5 -12.5,0 -12.5,0 0,-12.5 0,-12.5 25,0 25,0 0,-12.5 0,-12.5 -12.5,0 -12.5,0 0,-12.5 0,-12.5 62.5,0 62.5,0 0,25 0,25 -12.5,0 -12.5,0 0,-12.5 0,-12.5 -25,0 -25,0 0,12.5 0,12.5 25,0 25,0 0,12.5 0,12.5 -25,0 -25,0 0,12.5 0,12.5 -12.5,0 -12.5,0 0,12.5 0,12.5 12.5,0 12.5,0 0,25 0,25 -12.5,0 -12.5,0 0,12.5 0,12.5 25,0 25,0 0,12.5 0,12.5 12.5,0 12.5,0 0,-12.5 0,-12.5 -12.5,0 -12.5,0 0,-12.5 0,-12.5 25,0 25,0 0,12.5 0,12.5 12.5,0 12.5,0 0,37.5 0,37.5 -12.5,0 -12.5,0 0,25 0,25 37.5,0 37.5,0 0,12.5 0,12.5 -25,0 -25,0 0,12.5 0,12.5 -12.5,0 -12.5,0 0,25 0,25 12.5,0 12.5,0 0,-25 0,-25 12.5,0 12.5,0 0,25 0,25 12.5,0 12.5,0 0,-25 0,-25 25,0 25,0 0,12.5 0,12.5 -12.5,0 -12.5,0 0,12.5 0,12.5 12.5,0 12.5,0 0,-12.5 0,-12.5 12.5,0 12.5,0 0,12.5 0,12.5 12.5,0 12.5,0 0,-12.5 0,-12.5 12.5,0 12.5,0 0,12.5 0,12.5 12.5,0 12.5,0 0,-12.5 0,-12.5 25,0 25,0 0,-12.5 0,-12.5 -25,0 -25,0 0,-12.5 0,-12.5 -12.5,0 -12.5,0 0,-25 0,-25 12.5,0 12.5,0 0,12.5 0,12.5 12.5,0 12.5,0 0,-12.5 0,-12.5 12.5,0 12.5,0 0,-12.5 0,-12.5 -12.5,0 -12.5,0 0,-12.5 0,-12.5 -12.5,0 -12.5,0 0,-12.5 0,-12.5 12.5,0 12.5,0 0,-12.5 0,-12.5 12.5,0 12.5,0 0,12.5 0,12.5 37.5,0 37.5,0 0,-12.5 0,-12.5 12.5,0 12.5,0 0,12.5 0,12.5 12.5,0 12.5,0 0,-12.5 0,-12.5 -12.5,0 -12.5,0 0,-12.5 0,-12.5 12.5,0 12.5,0 0,-12.5 0,-12.5 12.5,0 12.5,0 0,25 0,25 25,0 25,0 0,-25 0,-25 -25,0 -25,0 0,-12.5 0,-12.5 25,0 25,0 0,-12.5 0,-12.5 -25,0 -25,0 0,-12.5 0,-12.5 12.5,0 12.5,0 0,-12.5 0,-12.5 12.5,0 12.5,0 0,-25 0,-25 -25,0 -25,0 0,-12.5 0,-12.5 -37.5,0 -37.5,0 0,50 0,50 -25,0 -25,0 0,-37.5 0,-37.5 12.5,0 12.5,0 0,-25 0,-25 -12.5,0 -12.5,0 0,25 0,25 -25,0 -25,0 0,-37.5 0,-37.5 -12.5,0 -12.5,0 0,-25 0,-25 12.5,0 12.5,0 0,12.5 0,12.5 12.5,0 12.5,0 0,-25 0,-25 -12.5,0 -12.5,0 0,-12.5 0,-12.5 -12.5,0 -12.5,0 0,-25 0,-25 12.5,0 12.5,0 0,12.5 0,12.5 12.5,0 12.5,0 0,-25 0,-25 -37.5,0 -37.5,0 0,12.5 0,12.5 -12.5,0 -12.5,0 0,12.5 0,12.5 12.5,0 12.5,0 0,25 0,25 -25,0 -25,0 0,-25 0,-25 -12.5,0 -12.5,0 0,-25 0,-25 -37.5,0 -37.5,0 0,25 z m 249.9999,-12.5 0,12.5 75,0 75,0 0,75 0,75 12.5,0 12.5,0 0,-87.5 0,-87.5 -87.5,0 -87.5,0 0,12.5 z m -450,100 0,62.5 12.5,0 12.5,0 0,-50 0,-50 50,0 50,0 0,-12.5 0,-12.5 -62.5,0 -62.5,0 0,62.5 z m 450,-50 0,12.5 50,0 50,0 0,50 0,50 12.5,0 12.5,0 0,-62.5 0,-62.5 -62.5,0 -62.5,0 0,12.5 z m -400,75 0,37.5 37.5,0 37.5,0 0,-37.5 0,-37.5 -37.5,0 -37.5,0 0,37.5 z m 400,0 0,37.5 37.5,0 37.5,0 0,-37.5 0,-37.5 -37.5,0 -37.5,0 0,37.5 z m -24.99637,0 0,12.5 -12.5,0 -12.5,0 0,-12.5 0,-12.5 12.5,0 12.5,0 0,12.5 z m 200,275 0,12.5 -25,0 -25,0 0,-12.5 0,-12.5 25,0 25,0 0,12.5 z m -675.00363,100 0,12.5 75,0 75,0 0,75 0,75 12.5,0 12.5,0 0,-87.5 0,-87.5 -87.5,0 -87.5,0 0,12.5 z m 500,25 0,37.5 37.5,0 37.5,0 0,-37.5 0,-37.5 -37.5,0 -37.5,0 0,37.5 z m 100,12.5 0,50 -50,0 -50,0 0,12.5 0,12.5 62.5,0 62.5,0 0,-62.5 0,-62.5 -12.5,0 -12.5,0 0,50 z m 50,25 0,75 -75,0 -75,0 0,12.5 0,12.5 87.5,0 87.5,0 0,-87.5 0,-87.5 -12.5,0 -12.5,0 0,75 z m -650,-12.5 0,12.5 50,0 50,0 0,50 0,50 12.5,0 12.5,0 0,-62.5 0,-62.5 -62.5,0 -62.5,0 0,12.5 z m 0,75 0,37.5 37.5,0 37.5,0 0,-37.5 0,-37.5 -37.5,0 -37.5,0 0,37.5 z" />
</svg>
