<?xml version="1.0" encoding="UTF-8" standalone="no"?>
<svg
   xmlns:dc="http://purl.org/dc/elements/1.1/"
   xmlns:cc="http://creativecommons.org/ns#"
   xmlns:rdf="http://www.w3.org/1999/02/22-rdf-syntax-ns#"
   xmlns:svg="http://www.w3.org/2000/svg"
   xmlns="http://www.w3.org/2000/svg"
   xmlns:sodipodi="http://sodipodi.sourceforge.net/DTD/sodipodi-0.dtd"
   xmlns:inkscape="http://www.inkscape.org/namespaces/inkscape"
   version="1.0"
   width="1600"
   height="1600"
   viewBox="0 0 1280 1280"
   preserveAspectRatio="xMidYMid meet"
   id="svg2"
   inkscape:version="0.48.4 r9939"
   sodipodi:docname="link.svg">
  <defs
     id="defs52" />
  <sodipodi:namedview
     pagecolor="#ffffff"
     bordercolor="#666666"
     borderopacity="1"
     objecttolerance="10"
     gridtolerance="10"
     guidetolerance="10"
     inkscape:pageopacity="0"
     inkscape:pageshadow="2"
     inkscape:window-width="2560"
     inkscape:window-height="1381"
     id="namedview50"
     showgrid="false"
     inkscape:zoom="0.55940741"
     inkscape:cx="661.23622"
     inkscape:cy="796.84532"
     inkscape:window-x="1272"
     inkscape:window-y="-8"
     inkscape:window-maximized="1"
     inkscape:current-layer="svg2"
     fit-margin-top="0"
     fit-margin-left="0"
     fit-margin-right="0"
     fit-margin-bottom="0" />
  <metadata
     id="metadata4">
Created by potrace 1.12, written by Peter Selinger 2001-2015
<rdf:RDF>
  <cc:Work
     rdf:about="">
    <dc:format>image/svg+xml</dc:format>
    <dc:type
       rdf:resource="http://purl.org/dc/dcmitype/StillImage" />
    <dc:title />
  </cc:Work>
</rdf:RDF>
</metadata>
  <rect
     style="color:#000000;fill:#ffffff;fill-opacity:1;fill-rule:nonzero;stroke:none;stroke-width:12;marker:none;visibility:visible;display:inline;overflow:visible;enable-background:accumulate"
     id="rect3799"
     width="1280"
     height="1280"
     x="0"
     y="0" />
  <g
     transform="matrix(0.1,0,0,-0.1,302.5,977.5)"
     id="g6"
     style="fill:#ffffff;stroke:none">
    <path
       d="m 0,5875 0,-875 125,0 125,0 0,750 0,750 750,0 750,0 0,125 0,125 -875,0 -875,0 0,-875 z"
       id="path8"
       style="fill:#ffffff"
       inkscape:connector-curvature="0" />
    <path
       d="m 2000,6625 0,-125 125,0 125,0 0,125 0,125 -125,0 -125,0 0,-125 z"
       id="path10"
       style="fill:#ffffff"
       inkscape:connector-curvature="0" />
    <path
       d="m 2500,6375 0,-375 -125,0 -125,0 0,-125 0,-125 -125,0 -125,0 0,-375 0,-375 125,0 125,0 0,250 0,250 125,0 125,0 0,-375 0,-375 -125,0 -125,0 0,-250 0,-250 -125,0 -125,0 0,-250 0,-250 -375,0 -375,0 0,125 0,125 125,0 125,0 0,125 0,125 125,0 125,0 0,125 0,125 125,0 125,0 0,125 0,125 -375,0 -375,0 0,-250 0,-250 -125,0 -125,0 0,250 0,250 -125,0 -125,0 0,-125 0,-125 -375,0 -375,0 0,-750 0,-750 125,0 125,0 0,-250 0,-250 -125,0 -125,0 0,-125 0,-125 125,0 125,0 0,125 0,125 250,0 250,0 0,-125 0,-125 250,0 250,0 0,125 0,125 375,0 375,0 0,-125 0,-125 -250,0 -250,0 0,-125 0,-125 250,0 250,0 0,-250 0,-250 125,0 125,0 0,-125 0,-125 -125,0 -125,0 0,-125 0,-125 125,0 125,0 0,-125 0,-125 -125,0 -125,0 0,-125 0,-125 250,0 250,0 0,125 0,125 125,0 125,0 0,125 0,125 125,0 125,0 0,-250 0,-250 -125,0 -125,0 0,-125 0,-125 -375,0 -375,0 0,-125 0,-125 375,0 375,0 0,125 0,125 125,0 125,0 0,125 0,125 125,0 125,0 0,-125 0,-125 250,0 250,0 0,-125 0,-125 125,0 125,0 0,125 0,125 250,0 250,0 0,-125 0,-125 125,0 125,0 0,125 0,125 -125,0 -125,0 0,125 0,125 -125,0 -125,0 0,125 0,125 -125,0 -125,0 0,250 0,250 125,0 125,0 0,-125 0,-125 250,0 250,0 0,375 0,375 -125,0 -125,0 0,-125 0,-125 -500,0 -500,0 0,250 0,250 -375,0 -375,0 0,-125 0,-125 125,0 125,0 0,-125 0,-125 250,0 250,0 0,-125 0,-125 -500,0 -500,0 0,250 0,250 -125,0 -125,0 0,125 0,125 125,0 125,0 0,125 0,125 125,0 125,0 0,125 0,125 125,0 125,0 0,-125 0,-125 125,0 125,0 0,125 0,125 -125,0 -125,0 0,125 0,125 250,0 250,0 0,250 0,250 125,0 125,0 0,125 0,125 250,0 250,0 0,-125 0,-125 -125,0 -125,0 0,-250 0,-250 250,0 250,0 0,-125 0,-125 -125,0 -125,0 0,-125 0,-125 125,0 125,0 0,125 0,125 125,0 125,0 0,125 0,125 125,0 125,0 0,-250 0,-250 -125,0 -125,0 0,-125 0,-125 375,0 375,0 0,125 0,125 125,0 125,0 0,-125 0,-125 125,0 125,0 0,125 0,125 125,0 125,0 0,125 0,125 -125,0 -125,0 0,125 0,125 250,0 250,0 0,-250 0,-250 125,0 125,0 0,250 0,250 -125,0 -125,0 0,125 0,125 125,0 125,0 0,375 0,375 -125,0 -125,0 0,-375 0,-375 -375,0 -375,0 0,250 0,250 125,0 125,0 0,-125 0,-125 125,0 125,0 0,125 0,125 -125,0 -125,0 0,125 0,125 125,0 125,0 0,125 0,125 250,0 250,0 0,125 0,125 -125,0 -125,0 0,125 0,125 -125,0 -125,0 0,-125 0,-125 -125,0 -125,0 0,125 0,125 -125,0 -125,0 0,-125 0,-125 125,0 125,0 0,-250 0,-250 -250,0 -250,0 0,250 0,250 -250,0 -250,0 0,125 0,125 125,0 125,0 0,125 0,125 -250,0 -250,0 0,250 0,250 -125,0 -125,0 0,125 0,125 125,0 125,0 0,125 0,125 -125,0 -125,0 0,125 0,125 125,0 125,0 0,125 0,125 -125,0 -125,0 0,-125 0,-125 -125,0 -125,0 0,-250 0,-250 -125,0 -125,0 0,125 0,125 -125,0 -125,0 0,-125 0,-125 -125,0 -125,0 0,125 0,125 -375,0 -375,0 0,125 0,125 125,0 125,0 0,125 0,125 125,0 125,0 0,125 0,125 -125,0 -125,0 0,-125 0,-125 -125,0 -125,0 0,250 0,250 -125,0 -125,0 0,-375 z m 250,-750 0,-125 -125,0 -125,0 0,125 0,125 125,0 125,0 0,-125 z m 500,-375 0,-250 125,0 125,0 0,125 0,125 125,0 125,0 0,125 0,125 125,0 125,0 0,-125 0,-125 125,0 125,0 0,-125 0,-125 125,0 125,0 0,-125 0,-125 -125,0 -125,0 0,-125 0,-125 -250,0 -250,0 0,125 0,125 250,0 250,0 0,125 0,125 -375,0 -375,0 0,-375 0,-375 250,0 250,0 0,-250 0,-250 -125,0 -125,0 0,-125 0,-125 -125,0 -125,0 0,-125 0,-125 -250,0 -250,0 0,-250 0,-250 -375,0 -375,0 0,125 0,125 250,0 250,0 0,125 0,125 -125,0 -125,0 0,125 0,125 -125,0 -125,0 0,-125 0,-125 -125,0 -125,0 0,-125 0,-125 -125,0 -125,0 0,-125 0,-125 -125,0 -125,0 0,125 0,125 -125,0 -125,0 0,-125 0,-125 -375,0 -375,0 0,125 0,125 -125,0 -125,0 0,250 0,250 125,0 125,0 0,-125 0,-125 125,0 125,0 0,-125 0,-125 250,0 250,0 0,125 0,125 -125,0 -125,0 0,125 0,125 500,0 500,0 0,125 0,125 125,0 125,0 0,250 0,250 250,0 250,0 0,125 0,125 -125,0 -125,0 0,125 0,125 125,0 125,0 0,250 0,250 125,0 125,0 0,125 0,125 125,0 125,0 0,-250 z m -2250,-1125 0,-125 -125,0 -125,0 0,125 0,125 125,0 125,0 0,-125 z m 4000,0 0,-125 125,0 125,0 0,-125 0,-125 125,0 125,0 0,-375 0,-375 125,0 125,0 0,-125 0,-125 -125,0 -125,0 0,-125 0,-125 -125,0 -125,0 0,125 0,125 125,0 125,0 0,125 0,125 -250,0 -250,0 0,250 0,250 -125,0 -125,0 0,-250 0,-250 -125,0 -125,0 0,250 0,250 -125,0 -125,0 0,250 0,250 125,0 125,0 0,125 0,125 250,0 250,0 0,-125 z m -4500,-250 0,-125 -125,0 -125,0 0,125 0,125 125,0 125,0 0,-125 z m 2000,-1500 0,-125 -125,0 -125,0 0,125 0,125 125,0 125,0 0,-125 z m 0,-1250 0,-125 -125,0 -125,0 0,125 0,125 125,0 125,0 0,-125 z m 1250,-125 0,-250 -250,0 -250,0 0,125 0,125 125,0 125,0 0,125 0,125 125,0 125,0 0,-250 z m 250,-625 0,-125 -125,0 -125,0 0,125 0,125 125,0 125,0 0,-125 z"
       id="path12"
       style="fill:#ffffff"
       inkscape:connector-curvature="0" />
    <path
       d="m 3000,4875 0,-125 125,0 125,0 0,125 0,125 -125,0 -125,0 0,-125 z"
       id="path14"
       style="fill:#ffffff"
       inkscape:connector-curvature="0" />
    <path
       d="m 3000,4125 0,-125 -250,0 -250,0 0,-125 0,-125 250,0 250,0 0,125 0,125 250,0 250,0 0,125 0,125 -250,0 -250,0 0,-125 z"
       id="path16"
       style="fill:#ffffff"
       inkscape:connector-curvature="0" />
    <path
       d="m 3250,3625 0,-125 125,0 125,0 0,125 0,125 -125,0 -125,0 0,-125 z"
       id="path18"
       style="fill:#ffffff"
       inkscape:connector-curvature="0" />
    <path
       d="m 4500,3750 0,-250 125,0 125,0 0,125 0,125 125,0 125,0 0,-125 0,-125 125,0 125,0 0,125 0,125 -125,0 -125,0 0,125 0,125 -250,0 -250,0 0,-250 z"
       id="path20"
       style="fill:#ffffff"
       inkscape:connector-curvature="0" />
    <path
       d="m 3500,6500 0,-250 250,0 250,0 0,125 0,125 125,0 125,0 0,125 0,125 -375,0 -375,0 0,-250 z"
       id="path22"
       style="fill:#ffffff"
       inkscape:connector-curvature="0" />
    <path
       d="m 4500,6625 0,-125 125,0 125,0 0,125 0,125 -125,0 -125,0 0,-125 z"
       id="path24"
       style="fill:#ffffff"
       inkscape:connector-curvature="0" />
    <path
       d="m 5000,6625 0,-125 750,0 750,0 0,-750 0,-750 125,0 125,0 0,875 0,875 -875,0 -875,0 0,-125 z"
       id="path26"
       style="fill:#ffffff"
       inkscape:connector-curvature="0" />
    <path
       d="m 500,5625 0,-625 125,0 125,0 0,500 0,500 500,0 500,0 0,125 0,125 -625,0 -625,0 0,-625 z"
       id="path28"
       style="fill:#ffffff"
       inkscape:connector-curvature="0" />
    <path
       d="m 5000,6125 0,-125 500,0 500,0 0,-500 0,-500 125,0 125,0 0,625 0,625 -625,0 -625,0 0,-125 z"
       id="path30"
       style="fill:#ffffff"
       inkscape:connector-curvature="0" />
    <path
       d="m 1000,5375 0,-375 375,0 375,0 0,375 0,375 -375,0 -375,0 0,-375 z"
       id="path32"
       style="fill:#ffffff"
       inkscape:connector-curvature="0" />
    <path
       d="m 5000,5375 0,-375 375,0 375,0 0,375 0,375 -375,0 -375,0 0,-375 z"
       id="path34"
       style="fill:#ffffff"
       inkscape:connector-curvature="0" />
    <path
       d="m 3500,2375 0,-125 125,0 125,0 0,-250 0,-250 125,0 125,0 0,375 0,375 -250,0 -250,0 0,-125 z"
       id="path36"
       style="fill:#ffffff"
       inkscape:connector-curvature="0" />
    <path
       d="m 0,1625 0,-125 750,0 750,0 0,-750 0,-750 125,0 125,0 0,875 0,875 -875,0 -875,0 0,-125 z"
       id="path38"
       style="fill:#ffffff"
       inkscape:connector-curvature="0" />
    <path
       d="m 5000,1375 0,-375 375,0 375,0 0,375 0,375 -375,0 -375,0 0,-375 z"
       id="path40"
       style="fill:#ffffff"
       inkscape:connector-curvature="0" />
    <path
       d="m 6000,1250 0,-500 -500,0 -500,0 0,-125 0,-125 625,0 625,0 0,625 0,625 -125,0 -125,0 0,-500 z"
       id="path42"
       style="fill:#ffffff"
       inkscape:connector-curvature="0" />
    <path
       d="m 6500,1000 0,-750 -750,0 -750,0 0,-125 0,-125 875,0 875,0 0,875 0,875 -125,0 -125,0 0,-750 z"
       id="path44"
       style="fill:#ffffff"
       inkscape:connector-curvature="0" />
    <path
       d="m 0,1125 0,-125 500,0 500,0 0,-500 0,-500 125,0 125,0 0,625 0,625 -625,0 -625,0 0,-125 z"
       id="path46"
       style="fill:#ffffff"
       inkscape:connector-curvature="0" />
    <path
       d="M 0,375 0,0 l 375,0 375,0 0,375 0,375 -375,0 -375,0 0,-375 z"
       id="path48"
       style="fill:#ffffff"
       inkscape:connector-curvature="0" />
  </g>
</svg>
