<?xml version="1.0" encoding="UTF-8" standalone="no"?>
<svg
   xmlns:dc="http://purl.org/dc/elements/1.1/"
   xmlns:cc="http://creativecommons.org/ns#"
   xmlns:rdf="http://www.w3.org/1999/02/22-rdf-syntax-ns#"
   xmlns:svg="http://www.w3.org/2000/svg"
   xmlns="http://www.w3.org/2000/svg"
   xmlns:sodipodi="http://sodipodi.sourceforge.net/DTD/sodipodi-0.dtd"
   xmlns:inkscape="http://www.inkscape.org/namespaces/inkscape"
   version="1.1"
   width="1600"
   height="1600"
   id="svg2"
   inkscape:version="0.48.4 r9939"
   sodipodi:docname="link.svg">
  <metadata
     id="metadata28">
    <rdf:RDF>
      <cc:Work
         rdf:about="The Aztec Empire was a tribute empire based in Tenochtitlan, which extended its power throughout Mesoamerica in the late postclassic period.[9] It originated in 1427 as a triple-alliance between the city-states Tenochtitlan, Texcoco and Tlacopan who allied to defeat the Tepanec state of Azcapotzalco, that had previously dominated the Basin of Mexico. Soon Texcoco and Tlacopan became junior partners in the alliance which was de facto led by the Mexica of Tenochtitlan. The empire extended its power by a combination of trade and military conquest. It was never a true territorial empire controlling a territory by large military garrisons in conquered provinces, but rather controlled its client states primarily by installing friendly rulers in conquered cities, by constructing marriage alliances between the ruling dynasties, and by extending an imperial ideology to its client states. Client states paid tribute to the Aztec emperor, the Huey Tlatoani, in an economic strategy limiting communication and trade between outlying polities making them depend on the imperial center for the acquisition of luxury goods. The political clout of the empire reached far south into Mesoamerica conquering cities as far south as Chiapas and Guatemala and spanning from the Pacific to the Atlantic oceans. The empire reached its maximal extent in 1519 just prior to the arrival of the Spanish conquistadors led by Cortés who managed to topple the Aztec empire by allying with some of the traditional enemies of the Aztecs, the Nahuatl speaking Tlaxcalteca.">
        <dc:format>image/svg+xml</dc:format>
        <dc:type
           rdf:resource="http://purl.org/dc/dcmitype/StillImage" />
        <dc:title />
      </cc:Work>
    </rdf:RDF>
  </metadata>
  <defs
     id="defs26" />
  <sodipodi:namedview
     pagecolor="#ffffff"
     bordercolor="#666666"
     borderopacity="1"
     objecttolerance="10"
     gridtolerance="10"
     guidetolerance="10"
     inkscape:pageopacity="0"
     inkscape:pageshadow="2"
     inkscape:window-width="2560"
     inkscape:window-height="1381"
     id="namedview24"
     showgrid="false"
     fit-margin-top="0"
     fit-margin-left="0"
     fit-margin-right="0"
     fit-margin-bottom="0"
     inkscape:zoom="0.50000001"
     inkscape:cx="2111.8763"
     inkscape:cy="494.9456"
     inkscape:window-x="1272"
     inkscape:window-y="-8"
     inkscape:window-maximized="1"
     inkscape:current-layer="svg2" />
  <rect
     style="color:#000000;fill:#ffffff;fill-opacity:1;fill-rule:nonzero;stroke:none;stroke-width:12;marker:none;visibility:visible;display:inline;overflow:visible;enable-background:accumulate"
     id="rect3006"
     width="1600"
     height="1600"
     x="0"
     y="0" />
  <path
     style="fill:#ffffff;stroke:none"
     d="m 422.53288,1177.4671 c -281.68859,-784.9781 -140.84429,-392.48903 0,0 z m 0,0 -44.4079,0 0,-133.2237 88.81579,0 0,-44.40787 88.81579,0 0,-44.40789 44.4079,0 0,-88.81579 -44.4079,0 0,-44.40789 44.4079,0 0,-44.4079 -44.4079,0 0,-44.40789 44.4079,0 0,-44.40789 -88.8158,0 0,-44.4079 -44.40789,0 0,-44.4079 44.40789,0 0,-44.40788 44.4079,0 0,88.81578 44.4079,0 0,-44.4079 44.40789,0 0,-44.40788 88.81579,0 0,44.40788 177.63158,0 0,-44.40788 44.40789,0 0,44.40788 88.81579,0 0,44.4079 44.4079,0 0,88.81579 88.8158,0 0,-44.40789 44.4079,0 0,88.81578 -44.4079,0 0,44.4079 -44.4079,0 0,-44.4079 -133.22369,0 0,44.4079 44.40789,0 0,88.81578 88.8158,0 0,44.4079 -44.4079,0 0,44.40789 -44.4079,0 0,44.40787 -44.40789,0 0,-44.40787 -88.81579,0 0,44.40787 -44.4079,0 0,-44.40787 -44.40789,0 0,44.40787 -44.4079,0 0,-44.40787 -44.40789,0 0,44.40787 44.40789,0 0,44.4079 44.4079,0 0,-44.4079 44.40789,0 0,44.4079 44.4079,0 0,-44.4079 44.40789,0 0,133.2236 88.81579,0 0,44.408 -44.40789,0 0,-44.408 -222.03948,10e-5 0,-88.8161 -44.40789,0 0,0 -44.4079,3e-4 0,88.8158 -44.40789,0 0,-44.4079 -44.40789,0 0,-44.4079 44.40789,0 0,-44.4079 44.40789,0 0,-44.40787 -44.40789,0 0,44.40787 -133.22369,0 0,44.4079 -44.40789,0 0,44.4079 -44.40789,0 z m 177.63158,-44.4079 0,88.8158 -88.8158,0 0,-44.4079 44.4079,0 0,-44.4079 z m 444.07894,-88.8158 c -696.16227,-696.1623 -348.08113,-348.08113 0,0 z m 44.4079,-4e-4 0,-44.40747 44.4079,0 0,44.40787 z m 44.4079,-133.22326 0,-44.40789 44.4079,0 0,44.40789 z m 0,-88.81578 c -755.3728,-548.13596 -377.6864,-274.06796 0,0 z m 44.4079,-133.22368 -44.4079,0 0,-44.4079 44.4079,0 z m -44.4079,-44.4079 -44.4079,0 0,-44.4079 44.4079,0 z m -177.63159,-88.81578 0,-44.4079 -44.40761,0 0,-133.2237 44.40761,0 0,88.8158 88.81579,0 0,44.4079 -44.40789,0 0,44.4079 z m 133.22369,-177.6316 44.4079,0 0,44.4079 -44.4079,1e-4 m -355.26316,133.2236 0,-88.8158 177.63186,0 0,44.4079 -44.40818,0 0,44.4079 z m 0,-88.8158 -88.81579,0 0,-44.4079 44.40789,0 0,-44.4079 133.22369,0 0,44.4079 -88.81579,0 z m -88.81579,-44.4079 -44.40789,0 0,-44.4079 44.40789,0 z m 0,44.4079 0,44.4079 -44.40789,0 0,-44.4079 z m -177.63158,133.22368 -44.40789,0 0,-44.40788 44.40789,0 z m -44.40789,-44.40788 -44.4079,0 0,-44.4079 44.4079,0 z m 0,-44.4079 0,-88.8158 44.40789,0 0,44.4079 88.81579,0 0,44.4079 z m 88.81578,177.63158 0,88.81572 -44.40789,6e-5 0,-88.81578 z m -44.40789,88.81578 0,44.40789 44.40789,0 0,44.4079 -44.40789,0 0,88.81579 -88.81579,0 0,-44.4079 44.4079,0 0,-133.22368 z m -44.40789,0 c -281.68859,-518.53066 -140.84429,-259.26536 0,0 z m 88.81578,88.81579 44.4079,0 0,-88.81585 -44.4079,0 z m 577.30264,355.26315 0,-44.4079 44.4079,0 0,44.4079 z m 88.8158,-88.8158 0,-44.4079 44.4079,0 0,44.4079 z m 0,-88.8158 0,-44.40788 44.4079,0 0,44.40788 z m -532.89475,-88.81576 310.85526,0 0,-310.85527 -310.85526,0 z m 44.40789,-44.4079 0,-222.03946 222.03948,0 0,222.03945 z m 44.4079,-44.40789 133.22368,0 0,-133.22368 -133.22368,0 z m 444.07896,-266.44737 0,-222.03948 44.4079,0 0,222.03948 z M 511.34866,422.5329 l 0,-44.4079 44.4079,0 0,44.4079 z"
     id="path9"
     inkscape:connector-curvature="0"
     sodipodi:nodetypes="ccccccccccccccccccccccccccccccccccccccccccccccccccccccccccccccccccccccccccccccccccccccccccccccccccccccccccccccccccccccccccccccccccccccccccccccccccccccccccccccccccccccccccccccccccccccccccccccccccccccccccccccccccccccccccccccccccccccccccccccccccccccccccccccccccc" />
</svg>
