<?xml version="1.0" encoding="UTF-8" standalone="no"?>
<svg
   xmlns:dc="http://purl.org/dc/elements/1.1/"
   xmlns:cc="http://creativecommons.org/ns#"
   xmlns:rdf="http://www.w3.org/1999/02/22-rdf-syntax-ns#"
   xmlns:svg="http://www.w3.org/2000/svg"
   xmlns="http://www.w3.org/2000/svg"
   xmlns:sodipodi="http://sodipodi.sourceforge.net/DTD/sodipodi-0.dtd"
   xmlns:inkscape="http://www.inkscape.org/namespaces/inkscape"
   version="1.0"
   width="1600"
   height="1600"
   viewBox="0 0 1280 1280"
   preserveAspectRatio="xMidYMid meet"
   id="svg2"
   inkscape:version="0.48.4 r9939"
   sodipodi:docname="link.svg">
  <defs
     id="defs52" />
  <sodipodi:namedview
     pagecolor="#ffffff"
     bordercolor="#666666"
     borderopacity="1"
     objecttolerance="10"
     gridtolerance="10"
     guidetolerance="10"
     inkscape:pageopacity="0"
     inkscape:pageshadow="2"
     inkscape:window-width="2560"
     inkscape:window-height="1381"
     id="namedview50"
     showgrid="false"
     inkscape:zoom="0.5"
     inkscape:cx="944.45531"
     inkscape:cy="800.6029"
     inkscape:window-x="1272"
     inkscape:window-y="-8"
     inkscape:window-maximized="1"
     inkscape:current-layer="svg2"
     fit-margin-top="0"
     fit-margin-left="0"
     fit-margin-right="0"
     fit-margin-bottom="0" />
  <metadata
     id="metadata4">
Created by potrace 1.12, written by Peter Selinger 2001-2015
<rdf:RDF>
  <cc:Work
     rdf:about="">
    <dc:format>image/svg+xml</dc:format>
    <dc:type
       rdf:resource="http://purl.org/dc/dcmitype/StillImage" />
    <dc:title />
  </cc:Work>
</rdf:RDF>
</metadata>
  <rect
     style="color:#000000;fill:#ffffff;fill-opacity:1;fill-rule:nonzero;stroke:none;stroke-width:12;marker:none;visibility:visible;display:inline;overflow:visible;enable-background:accumulate"
     id="rect3799"
     width="1280"
     height="1280"
     x="0"
     y="0" />
  <g
     transform="matrix(0.1,0,0,-0.1,302.5,977.5)"
     id="g6"
     style="fill:#280b0b;stroke:none" />
  <path
     id="path40-7"
     style="fill:#ffffff;stroke:none"
     d="m 577.49744,690.00188 0,37.5 37.5,0 37.5,0 0,-37.5 0,-37.5 -37.5,0 -37.5,0 0,37.5 z M 302.5,940 l 0,37.5 37.5,0 37.5,0 0,-37.5 0,-37.5 -37.5,0 -37.5,0 0,37.5 z m 0,-75 0,12.5 50,0 50,0 0,50 0,50 12.5,0 12.5,0 0,-62.5 0,-62.5 -62.5,0 -62.5,0 0,12.5 z m 650,12.5 0,75 -75,0 -75,0 0,12.5 0,12.5 87.5,0 87.5,0 0,-87.5 0,-87.5 -12.5,0 -12.5,0 0,75 z m -50,-25 0,50 -50,0 -50,0 0,12.5 0,12.5 62.5,0 62.5,0 0,-62.5 0,-62.5 -12.5,0 -12.5,0 0,50 z m -100,-12.5 0,37.5 37.5,0 37.5,0 0,-37.5 0,-37.5 -37.5,0 -37.5,0 0,37.5 z m -500,-25 0,12.5 75,0 75,0 0,75 0,75 12.5,0 12.5,0 0,-87.5 0,-87.5 -87.5,0 -87.5,0 0,12.5 z m 400,-25 0,-12.5 -12.5,0 -12.5,0 0,-25 0,-25 -12.5,0 -12.5,0 0,37.5 0,37.5 25,0 25,0 0,-12.5 z m 100,-350 0,37.5 37.5,0 37.5,0 0,-37.5 0,-37.5 -37.5,0 -37.5,0 0,37.5 z m -425,-100 0,-37.5 -37.5,0 -37.5,0 0,37.5 0,37.5 37.5,0 37.5,0 0,-37.5 z m 425,25 0,12.5 50,0 50,0 0,50 0,50 12.5,0 12.5,0 0,-62.5 0,-62.5 -62.5,0 -62.5,0 0,12.5 z m -375,0 0,-62.5 -12.5,0 -12.5,0 0,50 0,50 -50,0 -50,0 0,12.5 0,12.5 62.5,0 62.5,0 0,-62.5 z m 375,-50 0,12.5 75,0 75,0 0,75 0,75 12.5,0 12.5,0 0,-87.5 0,-87.5 -87.5,0 -87.5,0 0,12.5 z m -50,0 0,12.5 12.5,0 12.5,0 0,-12.5 0,-12.5 -12.5,0 -12.5,0 0,12.5 z m -100,12.5 0,25 25,0 25,0 0,-12.5 0,-12.5 12.5,0 12.5,0 0,-12.5 0,-12.5 -37.5,0 -37.5,0 0,25 z m 100,275 0,25 12.5,0 12.5,0 0,-12.5 0,-12.5 12.5,0 12.5,0 0,12.5 0,12.5 12.5,0 12.5,0 0,-12.5 0,-12.5 -12.5,0 -12.5,0 0,-12.5 0,-12.5 -25,0 -25,0 0,25 z m -125,12.5 0,12.5 12.5,0 12.5,0 0,-12.5 0,-12.5 -12.5,0 -12.5,0 0,12.5 z m -25,-50 0,12.5 25,0 25,0 0,12.5 0,12.5 -25,0 -25,0 0,-12.5 0,-12.5 -25,0 -25,0 0,-12.5 0,-12.5 25,0 25,0 0,12.5 z m 0,-75 0,12.5 12.5,0 12.5,0 0,-12.5 0,-12.5 -12.5,0 -12.5,0 0,12.5 z m -50,450 0,-37.5 -12.5,0 -12.5,0 0,-12.5 0,-12.5 -12.5,0 -12.5,0 0,-37.5 0,-37.5 12.5,0 12.5,0 0,25 0,25 12.5,0 12.5,0 0,-37.5 0,-37.5 -12.5,0 -12.5,0 0,-25 0,-25 -12.5,0 -12.5,0 0,-25 0,-25 -37.5,0 -37.5,0 0,12.5 0,12.5 12.5,0 12.5,0 0,12.5 0,12.5 12.5,0 12.5,0 0,12.5 0,12.5 12.5,0 12.5,0 0,12.5 0,12.5 -37.5,0 -37.5,0 0,-25 0,-25 -12.5,0 -12.5,0 0,25 0,25 -12.5,0 -12.5,0 0,-12.5 0,-12.5 -37.5,0 -37.5,0 0,-75 0,-75 12.5,0 12.5,0 0,-25 0,-25 -12.5,0 -12.5,0 0,-12.5 0,-12.5 12.5,0 12.5,0 0,12.5 0,12.5 25,0 25,0 0,-12.5 0,-12.5 25,0 25,0 0,12.5 0,12.5 37.5,0 37.5,0 0,-12.5 0,-12.5 -25,0 -25,0 0,-12.5 0,-12.5 25,0 25,0 0,-25 0,-25 12.5,0 12.5,0 0,-12.5 0,-12.5 -12.5,0 -12.5,0 0,-12.5 0,-12.5 12.5,0 12.5,0 0,-12.5 0,-12.5 -12.5,0 -12.5,0 0,-12.5 0,-12.5 25,0 25,0 0,12.5 0,12.5 12.5,0 12.5,0 0,12.5 0,12.5 12.5,0 12.5,0 0,-25 0,-25 -12.5,0 -12.5,0 0,-12.5 0,-12.5 -37.5,0 -37.5,0 0,-12.5 0,-12.5 37.5,0 37.5,0 0,12.5 0,12.5 12.5,0 12.5,0 0,12.5 0,12.5 12.5,0 12.5,0 0,-12.5 0,-12.5 25,0 25,0 0,-12.5 0,-12.5 12.5,0 12.5,0 0,12.5 0,12.5 25,0 25,0 0,-12.5 0,-12.5 12.5,0 12.5,0 0,12.5 0,12.5 -12.5,0 -12.5,0 0,12.5 0,12.5 -12.5,0 -12.5,0 0,12.5 0,12.5 -12.5,0 -12.5,0 0,25 0,25 12.5,0 12.5,0 0,-12.5 0,-12.5 25,0 25,0 0,37.5 0,37.5 -12.5,0 -12.5,0 0,-12.5 0,-12.5 -50,0 -50,0 0,25 0,25 -37.5,0 -37.5,0 0,-12.5 0,-12.5 12.5,0 12.5,0 0,-12.5 0,-12.5 25,0 25,0 0,-12.5 0,-12.5 -50,0 -50,0 0,25 0,25 -12.5,0 -12.5,0 0,12.5 0,12.5 12.5,0 12.5,0 0,12.5 0,12.5 12.5,0 12.5,0 0,12.5 0,12.5 12.5,0 12.5,0 0,-12.5 0,-12.5 12.5,0 12.5,0 0,12.5 0,12.5 -12.5,0 -12.5,0 0,12.5 0,12.5 25,0 25,0 0,25 0,25 12.5,0 12.5,0 0,12.5 0,12.5 25,0 25,0 0,-12.5 0,-12.5 -12.5,0 -12.5,0 0,-25 0,-25 25,0 25,0 0,-12.5 0,-12.5 -12.5,0 -12.5,0 0,-12.5 0,-12.5 12.5,0 12.5,0 0,12.5 0,12.5 12.5,0 12.5,0 0,12.5 0,12.5 12.5,0 12.5,0 0,-25 0,-25 -12.5,0 -12.5,0 0,-12.5 0,-12.5 37.5,0 37.5,0 0,12.5 0,12.5 12.5,0 12.5,0 0,-12.5 0,-12.5 12.5,0 12.5,0 0,12.5 0,12.5 12.5,0 12.5,0 0,12.5 0,12.5 -12.5,0 -12.5,0 0,12.5 0,12.5 25,0 25,0 0,-25 0,-25 12.5,0 12.5,0 0,25 0,25 -12.5,0 -12.5,0 0,12.5 0,12.5 12.5,0 12.5,0 0,37.5 0,37.5 -12.5,0 -12.5,0 0,-37.5 0,-37.5 -37.5,0 -37.5,0 0,25 0,25 12.5,0 12.5,0 0,-12.5 0,-12.5 12.5,0 12.5,0 0,12.5 0,12.5 -12.5,0 -12.5,0 0,12.5 0,12.5 12.5,0 12.5,0 0,12.5 0,12.5 25,0 25,0 0,12.5 0,12.5 -12.5,0 -12.5,0 0,12.5 0,12.5 -12.5,0 -12.5,0 0,-12.5 0,-12.5 -12.5,0 -12.5,0 0,12.5 0,12.5 -12.5,0 -12.5,0 0,-12.5 0,-12.5 12.5,0 12.5,0 0,-25 0,-25 -25,0 -25,0 0,25 0,25 -25,0 -25,0 0,12.5 0,12.5 12.5,0 12.5,0 0,12.5 0,12.5 -25,0 -25,0 0,25 0,25 -12.5,0 -12.5,0 0,12.5 0,12.5 12.5,0 12.5,0 0,12.5 0,12.5 -12.5,0 -12.5,0 0,12.5 0,12.5 12.5,0 12.5,0 0,12.5 0,12.5 -12.5,0 -12.5,0 0,-12.5 0,-12.5 -12.5,0 -12.5,0 0,-25 0,-25 -12.5,0 -12.5,0 0,12.5 0,12.5 -12.5,0 -12.5,0 0,-12.5 0,-12.5 -12.5,0 -12.5,0 0,12.5 0,12.5 -37.5,0 -37.5,0 0,12.5 0,12.5 12.5,0 12.5,0 0,12.5 0,12.5 12.5,0 12.5,0 0,12.5 0,12.5 -12.5,0 -12.5,0 0,-12.5 0,-12.5 -12.5,0 -12.5,0 0,25 0,25 -12.5,0 -12.5,0 0,-37.5 z m 25,-75 0,-12.5 -12.5,0 -12.5,0 0,12.5 0,12.5 12.5,0 12.5,0 0,-12.5 z m 50,-37.5 0,-25 12.5,0 12.5,0 0,12.5 0,12.5 12.5,0 12.5,0 0,12.5 0,12.5 12.5,0 12.5,0 0,-12.5 0,-12.5 12.5,0 12.5,0 0,-12.5 0,-12.5 12.5,0 12.5,0 0,-12.5 0,-12.5 -12.5,0 -12.5,0 0,-12.5 0,-12.5 -25,0 -25,0 0,12.5 0,12.5 25,0 25,0 0,12.5 0,12.5 -37.5,0 -37.5,0 0,-37.5 0,-37.5 25,0 25,0 0,-25 0,-25 -12.5,0 -12.5,0 0,-12.5 0,-12.5 -12.5,0 -12.5,0 0,-12.5 0,-12.5 -25,0 -25,0 0,-25 0,-25 -37.5,0 -37.5,0 0,12.5 0,12.5 25,0 25,0 0,12.5 0,12.5 -12.5,0 -12.5,0 0,12.5 0,12.5 -12.5,0 -12.5,0 0,-12.5 0,-12.5 -12.5,0 -12.5,0 0,-12.5 0,-12.5 -12.5,0 -12.5,0 0,-12.5 0,-12.5 -12.5,0 -12.5,0 0,12.5 0,12.5 -12.5,0 -12.5,0 0,-12.5 0,-12.5 -37.5,0 -37.5,0 0,12.5 0,12.5 -12.5,0 -12.5,0 0,25 0,25 12.5,0 12.5,0 0,-12.5 0,-12.5 12.5,0 12.5,0 0,-12.5 0,-12.5 25,0 25,0 0,12.5 0,12.5 -12.5,0 -12.5,0 0,12.5 0,12.5 50,0 50,0 0,12.5 0,12.5 12.5,0 12.5,0 0,25 0,25 25,0 25,0 0,12.5 0,12.5 -12.5,0 -12.5,0 0,12.5 0,12.5 12.5,0 12.5,0 0,25 0,25 12.5,0 12.5,0 0,12.5 0,12.5 12.5,0 12.5,0 0,-25 z m -225,-112.5 0,-12.5 -12.5,0 -12.5,0 0,12.5 0,12.5 12.5,0 12.5,0 0,-12.5 z m 400,0 0,-12.5 12.5,0 12.5,0 0,-12.5 0,-12.5 12.5,0 12.5,0 0,-37.5 0,-37.5 12.5,0 12.5,0 0,-12.5 0,-12.5 -12.5,0 -12.5,0 0,-12.5 0,-12.5 -12.5,0 -12.5,0 0,12.5 0,12.5 12.5,0 12.5,0 0,12.5 0,12.5 -25,0 -25,0 0,25 0,25 -12.5,0 -12.5,0 0,-25 0,-25 -12.5,0 -12.5,0 0,25 0,25 -12.5,0 -12.5,0 0,25 0,25 12.5,0 12.5,0 0,12.5 0,12.5 25,0 25,0 0,-12.5 z m -450,-25 0,-12.5 -12.5,0 -12.5,0 0,12.5 0,12.5 12.5,0 12.5,0 0,-12.5 z m 200,-150 0,-12.5 -12.5,0 -12.5,0 0,12.5 0,12.5 12.5,0 12.5,0 0,-12.5 z m 0,-125 0,-12.5 -12.5,0 -12.5,0 0,12.5 0,12.5 12.5,0 12.5,0 0,-12.5 z m 125,-12.5 0,-25 -25,0 -25,0 0,12.5 0,12.5 12.5,0 12.5,0 0,12.5 0,12.5 12.5,0 12.5,0 0,-25 z m 25,-62.5 0,-12.5 -12.5,0 -12.5,0 0,12.5 0,12.5 12.5,0 12.5,0 0,-12.5 z m -200,-25 0,12.5 12.5,0 12.5,0 0,-12.5 0,-12.5 -12.5,0 -12.5,0 0,12.5 z m -25,75 0,-87.5 -12.5,0 -12.5,0 0,75 0,75 -75,0 -75,0 0,12.5 0,12.5 87.5,0 87.5,0 0,-87.5 z" />
</svg>
