<?xml version="1.0" encoding="UTF-8" standalone="no"?>
<svg
   xmlns:dc="http://purl.org/dc/elements/1.1/"
   xmlns:cc="http://creativecommons.org/ns#"
   xmlns:rdf="http://www.w3.org/1999/02/22-rdf-syntax-ns#"
   xmlns:svg="http://www.w3.org/2000/svg"
   xmlns="http://www.w3.org/2000/svg"
   xmlns:sodipodi="http://sodipodi.sourceforge.net/DTD/sodipodi-0.dtd"
   xmlns:inkscape="http://www.inkscape.org/namespaces/inkscape"
   version="1.1"
   width="1600"
   height="1600"
   id="svg2"
   inkscape:version="0.48.4 r9939"
   sodipodi:docname="azteccode_774190.svg">
  <metadata
     id="metadata28">
    <rdf:RDF>
      <cc:Work
         rdf:about="">
        <dc:format>image/svg+xml</dc:format>
        <dc:type
           rdf:resource="http://purl.org/dc/dcmitype/StillImage" />
        <dc:title></dc:title>
      </cc:Work>
    </rdf:RDF>
  </metadata>
  <defs
     id="defs26" />
  <sodipodi:namedview
     pagecolor="#ffffff"
     bordercolor="#666666"
     borderopacity="1"
     objecttolerance="10"
     gridtolerance="10"
     guidetolerance="10"
     inkscape:pageopacity="0"
     inkscape:pageshadow="2"
     inkscape:window-width="2560"
     inkscape:window-height="1381"
     id="namedview24"
     showgrid="false"
     fit-margin-top="0"
     fit-margin-left="0"
     fit-margin-right="0"
     fit-margin-bottom="0"
     inkscape:zoom="0.39732667"
     inkscape:cx="525.4031"
     inkscape:cy="561.4453"
     inkscape:window-x="1272"
     inkscape:window-y="-8"
     inkscape:window-maximized="1"
     inkscape:current-layer="svg2" />
  <rect
     style="color:#000000;fill:#ffffff;fill-opacity:1;fill-rule:nonzero;stroke:none;stroke-width:12;marker:none;visibility:visible;display:inline;overflow:visible;enable-background:accumulate"
     id="rect3006"
     width="1600"
     height="1600"
     x="0"
     y="0" />
  <path
     style="fill:#ffffff;stroke:none"
     d="m 422.53288,378.125 0,44.4079 44.40789,0 0,-44.4079 -44.40789,0 z m 0,44.4079 -44.4079,0 0,133.22367 88.81579,0 0,44.4079 88.81579,0 0,44.40789 44.4079,0 0,88.81579 -44.4079,0 0,44.40789 44.4079,0 0,44.4079 -44.4079,0 0,44.40789 44.4079,0 0,44.40789 -88.8158,0 0,44.4079 -44.40789,0 0,44.4079 44.40789,0 0,44.40788 44.4079,0 0,-88.81578 44.4079,0 0,44.4079 44.40789,0 0,44.40788 88.81579,0 0,-44.40788 177.63158,0 0,44.40788 44.40789,0 0,-44.40788 88.81579,0 0,-44.4079 44.4079,0 0,-88.81579 88.8158,0 0,44.40789 44.4079,0 0,-88.81578 -44.4079,0 0,-44.4079 -44.4079,0 0,44.4079 -133.22369,0 0,-44.4079 44.40789,0 0,-88.81578 88.8158,0 0,-44.4079 -44.4079,0 0,-44.40789 -44.4079,0 0,-44.4079 -44.40789,0 0,44.4079 -88.81579,0 0,-44.4079 -44.4079,0 0,44.4079 -44.40789,0 0,-44.4079 -44.4079,0 0,44.4079 -44.40789,0 0,-44.4079 44.40789,0 0,-44.40789 44.4079,0 0,44.40789 44.40789,0 0,-44.40789 44.4079,0 0,44.40789 44.40789,0 0,-88.81578 88.81579,0 0,-88.81579 -44.40789,0 0,44.4079 -222.03948,0 0,44.40789 -44.40789,0 0,44.40789 -44.4079,0 0,-88.81578 -44.40789,0 0,44.40789 -44.40789,0 0,44.40789 44.40789,0 0,44.40789 44.40789,0 0,44.4079 -44.40789,0 0,-44.4079 -133.22369,0 0,-44.40789 -44.40789,0 0,-44.40789 -44.40789,0 0,-44.40789 z m 177.63158,44.40789 0,-88.81579 -88.8158,0 0,44.4079 44.4079,0 0,44.40789 44.4079,0 z m 444.07894,88.81578 44.4079,0 0,-44.40789 -44.4079,0 0,44.40789 z m 44.4079,0 0,44.4079 44.4079,0 0,-44.4079 -44.4079,0 z m 44.4079,133.22369 0,44.40789 44.4079,0 0,-44.40789 -44.4079,0 z m 0,44.40789 -44.4079,0 0,44.40789 44.4079,0 0,-44.40789 z m 44.4079,177.63157 -44.4079,0 0,44.4079 44.4079,0 0,-44.4079 z m -44.4079,44.4079 -44.4079,0 0,44.4079 44.4079,0 0,-44.4079 z m -177.63159,88.81578 0,44.4079 -44.40789,0 0,133.2237 44.40789,0 0,-88.8158 88.81579,0 0,-44.4079 -44.40789,0 0,-44.4079 -44.4079,0 z m 88.81579,88.8158 0,44.4079 44.4079,0 0,-44.4079 -44.4079,0 z m 44.4079,0 44.4079,0 0,-88.8158 -44.4079,0 0,88.8158 z m 0,44.4079 0,44.4079 44.4079,0 0,-44.4079 -44.4079,0 z m -355.26316,-133.2237 0,88.8158 44.40789,0 0,-44.4079 88.81579,0 0,-44.4079 -133.22368,0 z m 0,88.8158 -88.81579,0 0,44.4079 44.40789,0 0,44.4079 133.22369,0 0,-44.4079 -88.81579,0 0,-44.4079 z m -88.81579,44.4079 -44.40789,0 0,44.4079 44.40789,0 0,-44.4079 z m 0,-44.4079 0,-44.4079 -44.40789,0 0,44.4079 44.40789,0 z m -177.63158,-133.22368 -44.40789,0 0,44.40788 44.40789,0 0,-44.40788 z m -44.40789,44.40788 -44.4079,0 0,44.4079 44.4079,0 0,-44.4079 z m 0,44.4079 0,88.8158 44.40789,0 0,-44.4079 88.81579,0 0,-44.4079 -133.22368,0 z m 88.81578,-177.63158 0,-88.81578 -44.40789,0 0,88.81578 44.40789,0 z m -44.40789,-88.81578 0,-44.40789 44.40789,0 0,-44.4079 -44.40789,0 0,-88.81579 -88.81579,0 0,44.4079 44.4079,0 0,133.22368 44.40789,0 z m -44.40789,0 -44.4079,0 0,88.81578 44.4079,0 0,-88.81578 z m 88.81578,-88.81579 44.4079,0 0,-44.40789 -44.4079,0 0,44.40789 z M 1088.6513,378.125 l 0,44.4079 44.4079,0 0,-44.4079 -44.4079,0 z m 88.8158,88.81579 0,44.40789 44.4079,0 0,-44.40789 -44.4079,0 z m 0,88.81578 0,44.40791 44.4079,0 0,-44.40791 -44.4079,0 z m -532.89475,88.81579 310.85526,0 0,310.85527 -310.85526,0 0,-310.85527 z m 44.40789,44.4079 0,222.03946 222.03948,0 0,-222.03945 -222.03948,0 z m 44.4079,44.40789 133.22368,0 0,133.22368 -133.22368,0 0,-133.22368 z m 44.40789,44.4079 0,44.40789 44.4079,0 0,-44.40789 -44.4079,0 z m 399.67107,222.03947 0,222.03948 44.4079,0 0,-222.03948 -44.4079,0 z m -666.11844,177.63158 0,44.4079 44.4079,0 0,-44.4079 -44.4079,0 z"
     id="path6"
     inkscape:connector-curvature="0" />
</svg>
